<svg xmlns="http://www.w3.org/2000/svg" id="svg8" width="30" height="30" version="1.1">
  <defs/>
  <circle id="circle2" cx="15.004" cy="15.003" r="14.297" fill="#9cc9fc" fill-rule="evenodd" stroke="#7eabdf" stroke-width="1.407"/>
  <g id="g881" transform="matrix(1.04964 0 0 1.04964 -.52 -.16)">
    <g id="g871" transform="translate(-.404 -.525)">
      <path id="path4526" fill="#fff" fill-opacity="1" stroke-width=".032" d="M21.502 7.214v10.588c0 .775-.856-.128-2.535.065-2.154.267-3.675 1.956-3.67 3.542.006 1.587 1.756 2.658 3.909 2.39 2.538-.121 4.157-1.771 4.152-3.359V7.214z" class="st0"/>
      <path id="rect4528" fill="#fff" fill-opacity="1" stroke-width=".032" d="M7.459 7.412h11.299v1.924H7.459z" class="st0"/>
      <path id="rect4530" fill="#fff" fill-opacity="1" stroke-width=".032" d="M7.459 11.527h11.299v1.924H7.459z" class="st0"/>
      <path id="path4532" fill="#fff" fill-opacity="1" stroke-width=".032" d="M7.459 19.757v1.924h6.098a3.273 3.273 0 01-.018-.328 4.031 4.031 0 01.33-1.596H7.46z" class="st0"/>
      <path id="path4534" fill="#fff" fill-opacity="1" stroke-width=".032" d="M18.227 16.654c.182-.02.357-.03.531-.034v-.978h-11.3v1.924h8.286a5.807 5.807 0 012.483-.912z" class="st0"/>
    </g>
    <path id="path822" fill="none" stroke="#9cc9fc" stroke-dasharray="none" stroke-linecap="butt" stroke-linejoin="miter" stroke-miterlimit="4" stroke-opacity="1" stroke-width="4" d="M6.458 6.457l17.09 17.09"/>
    <path id="path822-7" fill="none" stroke="#fff" stroke-dasharray="none" stroke-linecap="butt" stroke-linejoin="miter" stroke-miterlimit="4" stroke-opacity="1" stroke-width="2" d="M6.458 6.457l17.09 17.09"/>
  </g>
</svg>