<svg xmlns="http://www.w3.org/2000/svg" width="25" height="25" id="svg2"><g id="layer1" transform="translate(-590.17732,-892.9969)"><g id="g4883" transform="translate(0.35355341,1.0606602)"><g transform="translate(17.816033,-40.363445)" id="g4740-8-0"><g style="opacity:1;fill:#7eabdf;fill-opacity:1" id="g4639-9-6-5-4" transform="matrix(0.04492179,0,0,0.04682992,573.00778,932.81121)"><g id="g4628-6-8-6-4" style="fill:#7eabdf;fill-opacity:1"><path id="path4630-6-4-0-7" style="fill:#9cc9fc;fill-opacity:1" d="M512 209.015c0-4.653-.716-9.372-2.19-13.952l-.008-.014c-6.077-18.85-23.6-31.616-43.403-31.623H338.382L299.412 42.09c-6.062-18.858-23.59-31.652-43.41-31.659a45.6 45.6 0 0 0-43.414 31.652l19.706 6.336-19.706-6.329-38.97 121.336H45.601c-19.803.007-37.327 12.773-43.408 31.623l-.004.014a45.603 45.603 0 0 0 16.833 51.012l-.011-.014 103.702 74.452-39.919 121.191.007-.021a45.517 45.517 0 0 0-2.302 14.29 45.624 45.624 0 0 0 18.782 36.88l.015.008a45.623 45.623 0 0 0 53.749-.094l.007-.008 102.95-75.443 102.942 75.443.022.008a45.607 45.607 0 0 0 53.738.094l.011-.008a45.609 45.609 0 0 0 18.786-36.894c0-4.761-.741-9.58-2.284-14.255L389.29 320.512l103.694-74.452-.01.007A45.605 45.605 0 0 0 512 209.015z" class="st0"/></g></g><g style="opacity:1;fill:#7eabdf;fill-opacity:1" id="g4639-9-4-4" transform="matrix(0.04882803,0,0,0.05090209,572.00778,931.76873)"><g id="g4628-6-3-9" style="fill:#7eabdf;fill-opacity:1"><path id="path4630-6-1-5" style="fill:#7eabdf;fill-opacity:1" d="M512 209.015c0-4.653-.716-9.372-2.19-13.952l-.008-.014c-6.077-18.85-23.6-31.616-43.403-31.623H338.382L299.412 42.09c-6.062-18.858-23.59-31.652-43.41-31.659a45.6 45.6 0 0 0-43.414 31.652l19.706 6.336-19.706-6.329-38.97 121.336H45.601c-19.803.007-37.327 12.773-43.408 31.623l-.004.014a45.603 45.603 0 0 0 16.833 51.012l-.011-.014 103.702 74.452-39.919 121.191.007-.021a45.517 45.517 0 0 0-2.302 14.29 45.624 45.624 0 0 0 18.782 36.88l.015.008a45.623 45.623 0 0 0 53.749-.094l.007-.008 102.95-75.443 102.942 75.443.022.008a45.607 45.607 0 0 0 53.738.094l.011-.008a45.609 45.609 0 0 0 18.786-36.894c0-4.761-.741-9.58-2.284-14.255L389.29 320.512l103.694-74.452-.01.007A45.605 45.605 0 0 0 512 209.015zm-43.148 3.416h-.007l-116.04 83.319a20.658 20.658 0 0 0-7.587 23.288l44.684 135.611.201 1.309a4.212 4.212 0 0 1-1.752 3.423l.015-.007a4.144 4.144 0 0 1-2.467.798 4.243 4.243 0 0 1-2.506-.812l.014.007-115.169-84.405c-7.264-5.322-17.206-5.322-24.47 0L128.592 459.36a4.167 4.167 0 0 1-2.492.812 4.12 4.12 0 0 1-2.47-.805 4.216 4.216 0 0 1-1.737-3.395l.212-1.301.006-.022 44.67-135.611a20.657 20.657 0 0 0-7.592-23.288L43.152 212.431l-.007-.007c-1.119-.784-1.744-2.071-1.752-3.409l.201-1.273a4.202 4.202 0 0 1 4.006-2.92h143.11a20.684 20.684 0 0 0 19.706-14.377L252 54.74a4.202 4.202 0 0 1 4.002-2.912 4.21 4.21 0 0 1 4.002 2.919l43.579 135.698a20.682 20.682 0 0 0 19.706 14.377h143.11a4.194 4.194 0 0 1 4.002 2.92l.202 1.273c-.007 1.338-.626 2.618-1.751 3.416z" class="st0"/></g></g></g><path transform="matrix(0.70710678,-0.70710678,0.70710678,0.70710678,0,0)" id="rect4371-3-0" style="fill:#7eabdf;fill-opacity:1;stroke:#fff;stroke-width:1.60000002;stroke-linecap:round;stroke-linejoin:round;stroke-miterlimit:4;stroke-dasharray:none;stroke-opacity:1" d="M-228.289 1063.94h29.327v3h-29.327z"/></g></g><style id="style4608">.st0{fill:#4b4b4b}</style><style id="style4626">.st0{fill:#4b4b4b}</style></svg>