<svg xmlns="http://www.w3.org/2000/svg" width="25" height="25">
	<g transform="translate(-659.34541,-882.91477)">
		<g transform="translate(35.363385,-11.279002)">
			<path class="st0" d="M645.423 897.6s.145.102-2.116-.585a20.046 20.046 0 0 0-3.945-.747l-.133-.943c-.091-.65-.624-1.131-1.25-1.131h-2.994c-.626 0-1.159.481-1.25 1.131l-.134.943s-1.917.132-3.944.747c-2.262.687-2.117.584-2.117.584-.504.14-.856.618-.856 1.166v.815h19.596v-.815c0-.548-.352-1.027-.857-1.166z" style="fill:#7eabdf"/>
			<path class="st0" d="M628.308 916.886a2.53 2.53 0 0 0 2.521 2.308h11.305a2.531 2.531 0 0 0 2.522-2.308l1.252-15.977h-18.852l1.252 15.977zm12.374-12.443a.744.744 0 1 1 1.486.09l-.708 11.694a.744.744 0 0 1-1.486-.09l.708-11.694zm-4.945.045a.744.744 0 1 1 1.489 0v11.694a.744.744 0 1 1-1.489 0v-11.694zm-4.244-.743a.744.744 0 0 1 .788.698l.709 11.694a.744.744 0 0 1-1.486.09l-.709-11.694a.744.744 0 0 1 .698-.788z" style="fill:#7eabdf"/>
		</g>
	</g>
</svg>