<svg xmlns="http://www.w3.org/2000/svg" width="18" height="18"><g fill="#ff7bd9" stroke="#ff7bd9" stroke-width="5.62" stroke-linecap="round" stroke-linejoin="round" stroke-miterlimit="1"><path d="M4.445 14.323a1.164 2.486 30 011.147-2.476 1.164 2.486 30 011.697-.771 1.164 2.486 30 01.144 1.888 1.164 2.486 30 01-1.587 2.209l.19-1.95zM9.84 1.775a1.164 2.486 0 01.244 2.717A1.164 2.486 0 019 6.01a1.164 2.486 0 01-1.069-1.563 1.164 2.486 0 01.27-2.706l.81 1.783zM15.996 8.027a2.486 1.164-15 01-2.561.939 2.486 1.164-15 01-1.746-.654 2.486 1.164-15 011.233-1.438 2.486 1.164-15 012.684-.44L14.093 7.68zM2.69 6.427a1.164 2.486-75 012.687.468 1.164 2.486-75 011.185 1.439 1.164 2.486-75 01-1.787.628 1.164 2.486-75 01-2.544-.96l1.932-.323zM12.144 15.173a2.486 1.164 60 01-1.57-2.232 2.486 1.164 60 01.18-1.855 2.486 1.164 60 011.708.819 2.486 1.164 60 011.12 2.479l-1.595-1.14z" stroke-width="1.7836756"/></g></svg>