<svg xmlns="http://www.w3.org/2000/svg" width="30" height="30" id="svg2"><g id="layer1" transform="translate(-520.201 -582.156)"><g id="g5814" transform="matrix(.85053 0 0 .85053 -254.223 30.228)"><circle r="16.809" cy="666.563" cx="928.16" id="path3347-9-9-06-7-4-0-2" style="fill:#9cc9fc;fill-opacity:1;fill-rule:evenodd;stroke:#7eabdf;stroke-width:1.65400004;stroke-linecap:butt;stroke-linejoin:miter;stroke-miterlimit:4;stroke-dasharray:none;stroke-opacity:1"/><g transform="translate(298.711 176.764) scale(.69444)" id="g5744"><path id="path5723" style="fill:#fff;fill-opacity:1" d="M916.264 693.31c-.926-1.76-2.376-3.227-4.173-4.291a12.423 12.423 0 0 0-6.315-1.706c-2.9-.007-5.308.748-7.127 1.794-1.825 1.043-2.612 2.256-2.612 2.256a1.365 1.365 0 0 0 .039 2.098l2.526 2.024a1.365 1.365 0 0 0 1.75-.036s.31-.561 1.282-1.117c.978-.552 2.246-.997 4.142-1.002 1.654-.004 3.095.613 4.08 1.456a4.57 4.57 0 0 1 1.077 1.314c.226.431.308.808.307 1.095-.005.968-.193 1.6-.464 2.14-.207.403-.478.76-.826 1.107-.519.52-1.223.999-2.013 1.44-.79.446-1.643.839-2.504 1.313-.983.545-2.023 1.326-2.791 2.5a6.764 6.764 0 0 0-.873 1.943c-.193.7-.28 1.435-.28 2.185v1.456c0 .753.61 1.365 1.365 1.365h3.287c.754 0 1.365-.612 1.365-1.365v-1.456c0-.289.033-.475.065-.593a.738.738 0 0 1 .173-.329c.091-.102.274-.258.612-.445.493-.277 1.287-.652 2.185-1.137 1.344-.735 2.978-1.733 4.357-3.38a9.985 9.985 0 0 0 1.71-2.95c.422-1.14.65-2.421.649-3.794-.001-1.391-.379-2.713-.993-3.885z" class="st0"/><path id="path5725" style="fill:#fff;fill-opacity:1" d="M904.499 715.89a3.712 3.712 0 0 0 0 7.422 3.71 3.71 0 0 0 0-7.422z" class="st0"/></g></g></g><style id="style4608">.st0{fill:#4b4b4b}</style><style id="style4626">.st0{fill:#4b4b4b}</style><style id="style4898">.st0{fill:#4b4b4b}</style><style id="style4930">.st0{fill:#4b4b4b}</style><style id="style5128">.st0{fill:#4b4b4b}</style><style id="style5151">.st0{fill:#4b4b4b}</style><style id="style5178">.st0{fill:#4b4b4b}</style><style id="style5222">.st0{fill:#4b4b4b}</style><style id="style5271">.st0{fill:#4b4b4b}</style><style id="style5355">.st0{fill:#4b4b4b}</style><style id="style5415">.st0{fill:#4b4b4b}</style><style id="style5436">.st0{fill:#4b4b4b}</style><style id="style5472">.st0{fill:#4b4b4b}</style><style id="style5569">.st0{fill:#4b4b4b}</style><style id="style5590">.st0{fill:#4b4b4b}</style><style id="style5646">.st0{fill:#4b4b4b}</style><style id="style5719">.st0{fill:#4b4b4b}</style><style id="style7357">.st0{fill:#4b4b4b}</style><style id="style7387">.st0{fill:#4b4b4b}</style></svg>