<svg xmlns="http://www.w3.org/2000/svg" width="30" height="30">
	<g transform="translate(-193.90905,-582.15634)">
		<g transform="matrix(0.85052647,0,0,0.85052647,28.98427,91.50117)">
			<circle r="16.809" cy="594.52" cx="211.545" id="path3347-9-9" style="fill:#9cc9fc;fill-rule:evenodd;stroke:#7eabdf;stroke-width:1.65400004;stroke-linecap:butt;stroke-linejoin:miter;stroke-miterlimit:4;stroke-dasharray:none;stroke-opacity:1"/>
			<g transform="matrix(0.72872608,0,0,0.72872608,-304.50983,90.625092)">
				<path style="fill:#fff" class="st0" transform="matrix(0.0703125,0,0,0.0703125,690.16048,670.73001)" d="M256.089 28.324L0 284.219l37.928 37.904 218.161-217.981 217.982 217.981L512 284.219l-78.802-78.717-69.29-69.235-54.996-54.926z"/>
				<path style="fill:#fff" class="st0" transform="matrix(0.0703125,0,0,0.0703125,690.16048,670.73001)" d="M213.994 368.231h84.012v115.445h135.192V312.083L256.089 134.959 78.801 312.098v171.578h135.193z"/>
			</g>
		</g>
	</g>
</svg>