<svg xmlns="http://www.w3.org/2000/svg" width="30" height="30" id="svg2"><g id="layer1" transform="translate(-193.90905,-582.15634)"><g id="g5868" transform="matrix(0.85052647,0,0,0.85052647,28.98427,91.50117)"><circle r="16.809" cy="594.52" cx="211.545" id="path3347-9-9" style="fill:#9cc9fc;fill-opacity:1;fill-rule:evenodd;stroke:#7eabdf;stroke-width:1.65400004;stroke-linecap:butt;stroke-linejoin:miter;stroke-miterlimit:4;stroke-dasharray:none;stroke-opacity:1"/><g transform="matrix(0.72872608,0,0,0.72872608,-304.50983,90.625092)" id="g5296"><path id="polygon5275" style="fill:#fff;fill-opacity:1" class="st0" transform="matrix(0.0703125,0,0,0.0703125,690.16048,670.73001)" d="M256.089 28.324L0 284.219l37.928 37.904 218.161-217.981 217.982 217.981L512 284.219l-78.802-78.717-69.29-69.235-54.996-54.926z"/><path id="polygon5277" style="fill:#fff;fill-opacity:1" class="st0" transform="matrix(0.0703125,0,0,0.0703125,690.16048,670.73001)" d="M213.994 368.231h84.012v115.445h135.192V312.083L256.089 134.959 78.801 312.098v171.578h135.193z"/></g></g></g><style id="style4608">.st0{fill:#4b4b4b}</style><style id="style4626">.st0{fill:#4b4b4b}</style><style id="style4898">.st0{fill:#4b4b4b}</style><style id="style4930">.st0{fill:#4b4b4b}</style><style id="style5128">.st0{fill:#4b4b4b}</style><style id="style5151">.st0{fill:#4b4b4b}</style><style id="style5178">.st0{fill:#4b4b4b}</style><style id="style5222">.st0{fill:#4b4b4b}</style><style id="style5271">.st0{fill:#4b4b4b}</style><style id="style5355">.st0{fill:#4b4b4b}</style><style id="style5415">.st0{fill:#4b4b4b}</style><style id="style5436">.st0{fill:#4b4b4b}</style><style id="style5472">.st0{fill:#4b4b4b}</style><style id="style5569">.st0{fill:#4b4b4b}</style><style id="style5590">.st0{fill:#4b4b4b}</style><style id="style5646">.st0{fill:#4b4b4b}</style><style id="style5719">.st0{fill:#4b4b4b}</style></svg>