<svg xmlns="http://www.w3.org/2000/svg" width="25" height="25">
<g transform="translate(-380.467 -807.656)">
	<g transform="matrix(.59524 0 0 .59524 142.763 299.23)">
		<path class="st0" d="M436.403 860.394H404.28a4.946 4.946 0 0 0-4.94 4.94v18.171a6.421 6.421 0 0 0 6.414 6.414h29.174a6.421 6.421 0 0 0 6.413-6.414v-18.172a4.946 4.946 0 0 0-4.94-4.94zm2.443 23.111a3.922 3.922 0 0 1-3.917 3.918h-29.174a3.922 3.922 0 0 1-3.918-3.918v-18.172a2.447 2.447 0 0 1 2.444-2.444h32.122a2.446 2.446 0 0 1 2.443 2.444v18.172z" style="fill:#7eabdf"/>
		<path class="st0" d="M411.726 877.236h2.677a.74.74 0 0 0 .74-.74v-2.678a.74.74 0 0 0-.74-.741h-2.677a.74.74 0 0 0-.74.74v2.678c0 .41.33.74.74.74z" style="fill:#7eabdf"/>
		<path class="st0" d="M417.964 877.236h2.676a.74.74 0 0 0 .741-.74v-2.678a.74.74 0 0 0-.74-.741h-2.677a.74.74 0 0 0-.741.74v2.678c0 .41.332.74.74.74z" style="fill:#7eabdf"/>
		<path class="st0" d="M424.201 877.236h2.677a.74.74 0 0 0 .741-.74v-2.678a.74.74 0 0 0-.74-.741H424.2a.74.74 0 0 0-.74.74v2.678c0 .41.331.74.74.74z" style="fill:#7eabdf"/>
		<path class="st0" d="M435.195 879.315h-2.677a.74.74 0 0 0-.74.74v2.677c0 .41.331.741.74.741h2.677a.74.74 0 0 0 .74-.74v-2.677a.74.74 0 0 0-.74-.741z" style="fill:#7eabdf"/>
		<path class="st0" d="M411.726 870.998h2.677a.74.74 0 0 0 .74-.74v-2.677a.74.74 0 0 0-.74-.741h-2.677a.74.74 0 0 0-.74.74v2.677c0 .41.33.741.74.741z" style="fill:#7eabdf"/>
		<path class="st0" d="M408.166 873.077h-2.678a.74.74 0 0 0-.74.74v2.678c0 .41.331.74.74.74h2.677a.74.74 0 0 0 .741-.74v-2.677a.74.74 0 0 0-.74-.741z" style="fill:#7eabdf"/>
		<path class="st0" d="M408.166 866.84h-2.678a.74.74 0 0 0-.74.74v2.677c0 .41.331.741.74.741h2.677a.74.74 0 0 0 .741-.74v-2.677a.74.74 0 0 0-.74-.741z" style="fill:#7eabdf"/>
		<path class="st0" d="M408.166 879.315h-2.677a.74.74 0 0 0-.741.74v2.677c0 .41.332.741.74.741h2.677a.74.74 0 0 0 .741-.74v-2.677a.74.74 0 0 0-.74-.741z" style="fill:#7eabdf"/>
		<path class="st0" d="M417.964 870.998h2.676a.74.74 0 0 0 .741-.74v-2.677a.74.74 0 0 0-.74-.741h-2.677a.74.74 0 0 0-.741.74v2.677c0 .41.332.741.74.741z" style="fill:#7eabdf"/>
		<path class="st0" d="M424.201 870.998h2.677a.74.74 0 0 0 .741-.74v-2.677a.74.74 0 0 0-.74-.741H424.2a.74.74 0 0 0-.74.74v2.677c0 .41.331.741.74.741z" style="fill:#7eabdf"/>
		<path class="st0" d="M428.957 879.315h-17.231a.74.74 0 0 0-.74.74v2.677c0 .41.33.741.74.741h17.231a.74.74 0 0 0 .74-.74v-2.677a.74.74 0 0 0-.74-.741z" style="fill:#7eabdf"/>
		<path class="st0" d="M435.195 866.84h-4.756a.74.74 0 0 0-.741.74v8.915c0 .41.332.74.74.74h4.757a.74.74 0 0 0 .74-.74v-8.914a.74.74 0 0 0-.74-.741z" style="fill:#7eabdf"/>
	</g>
</g>
</svg>