<svg xmlns="http://www.w3.org/2000/svg" width="25" height="25">
	<g transform="translate(-451.935 -820.414)">
		<g transform="matrix(.5885 0 0 .5885 207.16 346.59)">
			<path class="st0" style="fill:#7eabdf" d="M427.701 837.85h18.948v1.81h-18.948z"/>
			<path class="st0" style="fill:#7eabdf" d="M427.701 830.507h18.948v1.81h-18.948z"/>
			<path class="st0" style="fill:#7eabdf" d="M427.701 823.166h18.948v1.811h-18.948z"/>
			<path class="st0" style="fill:#7eabdf" d="M437.717 815.825h8.931v1.81h-8.931z"/>
			<path class="st0" d="M450.087 805.144h-15.67a4.245 4.245 0 0 0-3 1.242l-9.775 9.776a4.242 4.242 0 0 0-1.243 3v24.6a3.868 3.868 0 0 0 3.863 3.863h25.825a3.867 3.867 0 0 0 3.863-3.863v-34.756a3.867 3.867 0 0 0-3.863-3.862zm-17.04 2.684v8.683c0 .939-.366 1.305-1.304 1.305h-8.684l9.988-9.988zm18.73 35.934c0 .933-.758 1.69-1.69 1.69h-25.825a1.692 1.692 0 0 1-1.69-1.69v-24.015h10.334c1.142 0 2.072-.93 2.072-2.073v-10.357h15.109c.932 0 1.69.757 1.69 1.689v34.756z" style="fill:#7eabdf"/>
		</g>
	</g>
</svg>