<svg xmlns="http://www.w3.org/2000/svg" width="30" height="30" id="svg2"><g id="layer1" transform="translate(-562.9 -583.531)"><g id="g4372" transform="translate(26.726 29.817) scale(.95082)"><path class="st0" d="M589.99 588.024a2.586 2.586 0 1 0-3.546 3.765 9.68 9.68 0 0 1 3.065 7.117c0 5.42-4.408 9.828-9.827 9.828-5.42 0-9.828-4.409-9.828-9.828a9.68 9.68 0 0 1 3.066-7.117 2.586 2.586 0 1 0-3.546-3.765 15 15 0 0 0-4.692 10.882c0 8.271 6.729 15 15 15 8.27 0 15-6.729 15-15a15 15 0 0 0-4.693-10.882z" style="fill:#7eabdf;fill-opacity:1" id="path3520"/><path class="st0" d="M579.682 598.906c1.428 0 2.586-.926 2.586-2.069v-12.413c0-1.143-1.158-2.07-2.586-2.07-1.429 0-2.586.927-2.586 2.07v12.413c0 1.143 1.157 2.07 2.586 2.07z" style="fill:#7eabdf;fill-opacity:1" id="path3522"/></g></g><style id="style4608">.st0{fill:#4b4b4b}</style><style id="style4626">.st0{fill:#4b4b4b}</style><style id="style4898">.st0{fill:#4b4b4b}</style><style id="style4930">.st0{fill:#4b4b4b}</style><style id="style5128">.st0{fill:#4b4b4b}</style><style id="style5151">.st0{fill:#4b4b4b}</style><style id="style5178">.st0{fill:#4b4b4b}</style><style id="style5222">.st0{fill:#4b4b4b}</style><style id="style5271">.st0{fill:#4b4b4b}</style><style id="style5355">.st0{fill:#4b4b4b}</style><style id="style5415">.st0{fill:#4b4b4b}</style><style id="style5436">.st0{fill:#4b4b4b}</style><style id="style5472">.st0{fill:#4b4b4b}</style><style id="style5569">.st0{fill:#4b4b4b}</style><style id="style5590">.st0{fill:#4b4b4b}</style><style id="style5646">.st0{fill:#4b4b4b}</style><style id="style5719">.st0{fill:#4b4b4b}</style><style id="style3516">.st0{fill:#4b4b4b}</style><style id="style3537">.st0{fill:#4b4b4b}</style></svg>