<svg xmlns="http://www.w3.org/2000/svg" width="30" height="30">
	<g transform="translate(-562.9 -583.531)">
		<g transform="translate(26.726 29.817) scale(.95082)">
			<path class="st0" d="M589.99 588.024a2.586 2.586 0 1 0-3.546 3.765 9.68 9.68 0 0 1 3.065 7.117c0 5.42-4.408 9.828-9.827 9.828-5.42 0-9.828-4.409-9.828-9.828a9.68 9.68 0 0 1 3.066-7.117 2.586 2.586 0 1 0-3.546-3.765 15 15 0 0 0-4.692 10.882c0 8.271 6.729 15 15 15 8.27 0 15-6.729 15-15a15 15 0 0 0-4.693-10.882z" style="fill:#7eabdf"/>
			<path class="st0" d="M579.682 598.906c1.428 0 2.586-.926 2.586-2.069v-12.413c0-1.143-1.158-2.07-2.586-2.07-1.429 0-2.586.927-2.586 2.07v12.413c0 1.143 1.157 2.07 2.586 2.07z" style="fill:#7eabdf"/>
		</g>
	</g>
</svg>