<svg xmlns="http://www.w3.org/2000/svg" width="30" height="30" id="svg2"><g id="layer1" transform="translate(-479.41482,-582.15636)"><g id="g5820" transform="matrix(0.8505261,0,0,0.8505261,-335.01965,30.08703)"><circle r="16.809" cy="666.728" cx="975.202" id="path3347-9-9-06-7-4-0" style="fill:#9cc9fc;fill-opacity:1;fill-rule:evenodd;stroke:#7eabdf;stroke-width:1.65400004;stroke-linecap:butt;stroke-linejoin:miter;stroke-miterlimit:4;stroke-dasharray:none;stroke-opacity:1"/><g transform="translate(-1.1577631,-1.5814163)" id="g5713"><path id="path5652-2" style="fill:#fff;fill-opacity:1" d="M971.183 668.277a3.132 3.132 0 1 1-6.264.066 3.134 3.134 0 0 1 3.1-3.167 3.135 3.135 0 0 1 3.164 3.101z" class="st0"/><path id="path5652-0" style="fill:#fff;fill-opacity:1" d="M979.491 668.277a3.132 3.132 0 1 1-6.264.066 3.134 3.134 0 0 1 3.1-3.167 3.135 3.135 0 0 1 3.164 3.101z" class="st0"/><path id="path5652-6" style="fill:#fff;fill-opacity:1" d="M987.8 668.277a3.132 3.132 0 1 1-6.264.066 3.134 3.134 0 0 1 3.1-3.167 3.135 3.135 0 0 1 3.164 3.101z" class="st0"/></g></g></g><style id="style4608">.st0{fill:#4b4b4b}</style><style id="style4626">.st0{fill:#4b4b4b}</style><style id="style4898">.st0{fill:#4b4b4b}</style><style id="style4930">.st0{fill:#4b4b4b}</style><style id="style5128">.st0{fill:#4b4b4b}</style><style id="style5151">.st0{fill:#4b4b4b}</style><style id="style5178">.st0{fill:#4b4b4b}</style><style id="style5222">.st0{fill:#4b4b4b}</style><style id="style5271">.st0{fill:#4b4b4b}</style><style id="style5355">.st0{fill:#4b4b4b}</style><style id="style5415">.st0{fill:#4b4b4b}</style><style id="style5436">.st0{fill:#4b4b4b}</style><style id="style5472">.st0{fill:#4b4b4b}</style><style id="style5569">.st0{fill:#4b4b4b}</style><style id="style5590">.st0{fill:#4b4b4b}</style><style id="style5646">.st0{fill:#4b4b4b}</style><style id="style5719">.st0{fill:#4b4b4b}</style></svg>