<svg xmlns="http://www.w3.org/2000/svg" width="30" height="30">
	<g transform="translate(-479.41482,-582.15636)">
		<g transform="matrix(0.8505261,0,0,0.8505261,-335.01965,30.08703)">
			<circle r="16.809" cy="666.728" cx="975.202" style="fill:#9cc9fc;fill-rule:evenodd;stroke:#7eabdf;stroke-width:1.65400004;stroke-linecap:butt;stroke-linejoin:miter;stroke-miterlimit:4;stroke-dasharray:none;stroke-opacity:1"/>
			<g transform="translate(-1.1577631,-1.5814163)">
				<path style="fill:#fff" d="M971.183 668.277a3.132 3.132 0 1 1-6.264.066 3.134 3.134 0 0 1 3.1-3.167 3.135 3.135 0 0 1 3.164 3.101z" class="st0"/>
				<path style="fill:#fff" d="M979.491 668.277a3.132 3.132 0 1 1-6.264.066 3.134 3.134 0 0 1 3.1-3.167 3.135 3.135 0 0 1 3.164 3.101z" class="st0"/>
				<path style="fill:#fff" d="M987.8 668.277a3.132 3.132 0 1 1-6.264.066 3.134 3.134 0 0 1 3.1-3.167 3.135 3.135 0 0 1 3.164 3.101z" class="st0"/>
			</g>
		</g>
	</g>
</svg>