<svg xmlns="http://www.w3.org/2000/svg" width="25" height="25">
	<g transform="translate(-236.565 -965.73)">
		<g transform="matrix(.83333 0 0 .83333 30.767 165.233)">
			<path class="st0" d="M246.957 972.602v5.99a2.253 2.253 0 0 0 2.252 2.253h4.194V970.35h-4.194a2.252 2.252 0 0 0-2.252 2.252z" style="fill:#7eabdf"/>
			<path class="st0" d="M263.833 966.147a.765.765 0 0 0-.746-.03l-8.334 4.233v10.495l8.334 4.233a.766.766 0 0 0 1.111-.682v-17.597a.764.764 0 0 0-.365-.652z" style="fill:#7eabdf"/>
			<path class="st0" d="M273.506 975.449l3.187-3.187a.9.9 0 1 0-1.272-1.272l-3.187 3.186-3.187-3.186a.9.9 0 1 0-1.272 1.272l3.187 3.187-3.187 3.186a.9.9 0 1 0 1.272 1.272l3.187-3.186 3.187 3.186a.9.9 0 1 0 1.272-1.272l-3.187-3.186z" style="fill:#7eabdf"/>
		</g>
	</g>
</svg>