<svg xmlns="http://www.w3.org/2000/svg" width="25" height="25" id="svg2"><g id="layer1" transform="translate(-236.565 -965.73)"><g id="g7968" transform="matrix(.83333 0 0 .83333 30.767 165.233)"><path class="st0" d="M246.957 972.602v5.99a2.253 2.253 0 0 0 2.252 2.253h4.194V970.35h-4.194a2.252 2.252 0 0 0-2.252 2.252z" style="fill:#7eabdf;fill-opacity:1" id="path7391"/><path class="st0" d="M263.833 966.147a.765.765 0 0 0-.746-.03l-8.334 4.233v10.495l8.334 4.233a.766.766 0 0 0 1.111-.682v-17.597a.764.764 0 0 0-.365-.652z" style="fill:#7eabdf;fill-opacity:1" id="path7393"/><path class="st0" d="M273.506 975.449l3.187-3.187a.9.9 0 1 0-1.272-1.272l-3.187 3.186-3.187-3.186a.9.9 0 1 0-1.272 1.272l3.187 3.187-3.187 3.186a.9.9 0 1 0 1.272 1.272l3.187-3.186 3.187 3.186a.9.9 0 1 0 1.272-1.272l-3.187-3.186z" style="fill:#7eabdf;fill-opacity:1" id="path7395"/></g></g><style id="style4608">.st0{fill:#4b4b4b}</style><style id="style4626">.st0{fill:#4b4b4b}</style><style id="style4898">.st0{fill:#4b4b4b}</style><style id="style4930">.st0{fill:#4b4b4b}</style><style id="style5128">.st0{fill:#4b4b4b}</style><style id="style5151">.st0{fill:#4b4b4b}</style><style id="style5178">.st0{fill:#4b4b4b}</style><style id="style5222">.st0{fill:#4b4b4b}</style><style id="style5271">.st0{fill:#4b4b4b}</style><style id="style5355">.st0{fill:#4b4b4b}</style><style id="style5415">.st0{fill:#4b4b4b}</style><style id="style5436">.st0{fill:#4b4b4b}</style><style id="style5472">.st0{fill:#4b4b4b}</style><style id="style5569">.st0{fill:#4b4b4b}</style><style id="style5590">.st0{fill:#4b4b4b}</style><style id="style5646">.st0{fill:#4b4b4b}</style><style id="style5719">.st0{fill:#4b4b4b}</style><style id="style7357">.st0{fill:#4b4b4b}</style><style id="style7387">.st0{fill:#4b4b4b}</style></svg>