<svg xmlns="http://www.w3.org/2000/svg" width="25" height="25">
	<g transform="translate(-383.533 -801.114)">
		<g transform="matrix(1.07602 0 0 1.07602 -62.181 -162.235)">
			<path class="st0" d="M429.445 898.106l1.466-2.171a.415.415 0 0 0-.111-.575.415.415 0 0 0-.575.111l-1.514 2.243a6.894 6.894 0 0 0-2.87-.621 6.893 6.893 0 0 0-2.869.621l-1.514-2.243a.415.415 0 0 0-.575-.111.415.415 0 0 0-.111.575l1.466 2.171a6.916 6.916 0 0 0-3.295 5.354h13.797a6.916 6.916 0 0 0-3.295-5.354zm-6.419 3.264a.966.966 0 1 1 0-1.932.966.966 0 0 1 0 1.932zm5.631 0a.966.966 0 1 1 0-1.932.966.966 0 0 1 0 1.932z" style="fill:#7eabdf"/>
			<path class="st0" d="M418.838 906.371v7.979c0 .626.512 1.138 1.138 1.138h1.882v1.863c0 .644.527 1.172 1.173 1.172.644 0 1.172-.528 1.172-1.172v-1.863h3.312v1.863c0 .644.527 1.172 1.172 1.172.645 0 1.173-.528 1.173-1.172v-1.863h1.637c.625 0 1.138-.512 1.138-1.138v-9.669h-13.797v1.69z" style="fill:#7eabdf"/>
			<path class="st0" d="M416.346 904.681a1.36 1.36 0 0 0-1.355 1.355v4.464c0 .746.61 1.356 1.355 1.356a1.36 1.36 0 0 0 1.355-1.356v-4.464a1.36 1.36 0 0 0-1.355-1.355z" style="fill:#7eabdf"/>
			<path class="st0" d="M435.337 904.681a1.36 1.36 0 0 0-1.355 1.355v4.464c0 .746.61 1.356 1.355 1.356a1.36 1.36 0 0 0 1.355-1.356v-4.464a1.36 1.36 0 0 0-1.355-1.355z" style="fill:#7eabdf"/>
		</g>
	</g>
</svg>