<svg xmlns="http://www.w3.org/2000/svg" width="30" height="30">
<g transform="translate(-316.26867,-582.15636)">
	<g transform="matrix(0.85052638,0,0,0.85052638,-308.25102,29.376841)">
		<circle r="16.809" cy="667.563" cx="751.91" id="path3347-9-9-0" style="fill:#9cc9fc;fill-rule:evenodd;stroke:#7eabdf;stroke-width:1.65400004;stroke-linecap:butt;stroke-linejoin:miter;stroke-miterlimit:4;stroke-dasharray:none;stroke-opacity:1"/>
		<g transform="translate(0.2558167,0.27355404)">
			<g transform="matrix(1.1259895,0,0,1.1259895,-93.618641,-82.230185)">
				<path class="st0" d="M742.719 656.884a1.756 1.756 0 1 0 0 3.512 1.756 1.756 0 0 0 0-3.512z" style="fill:#fff"/>
				<path class="st0" style="fill:#fff" d="M747.425 656.884h13v3.512h-13z"/>
			</g>
			<g transform="matrix(1.1259895,0,0,1.1259895,-93.618641,-84.220649)">
				<path class="st0" d="M742.719 665.665a1.756 1.756 0 1 0 0 3.512 1.756 1.756 0 0 0 0-3.512z" style="fill:#fff"/>
				<path class="st0" style="fill:#fff" d="M747.425 665.665h13v3.512h-13z"/>
			</g>
			<g transform="matrix(1.1259895,0,0,1.1259895,-93.618641,-86.211159)">
				<path class="st0" d="M742.719 674.446a1.756 1.756 0 1 0 0 3.512 1.756 1.756 0 0 0 0-3.512z" style="fill:#fff"/>
				<path class="st0" style="fill:#fff" d="M747.425 674.446h13v3.512h-13z"/>
			</g>
		</g>
	</g>
</g>
</svg>