<svg xmlns="http://www.w3.org/2000/svg" width="30" height="30" id="svg2"><g id="layer1" transform="translate(-316.26867,-582.15636)"><g id="g5773" transform="matrix(0.85052638,0,0,0.85052638,-308.25102,29.376841)"><circle r="16.809" cy="667.563" cx="751.91" id="path3347-9-9-0" style="fill:#9cc9fc;fill-opacity:1;fill-rule:evenodd;stroke:#7eabdf;stroke-width:1.65400004;stroke-linecap:butt;stroke-linejoin:miter;stroke-miterlimit:4;stroke-dasharray:none;stroke-opacity:1"/><g transform="translate(0.2558167,0.27355404)" id="g5762"><g id="g5541" transform="matrix(1.1259895,0,0,1.1259895,-93.618641,-82.230185)"><path class="st0" d="M742.719 656.884a1.756 1.756 0 1 0 0 3.512 1.756 1.756 0 0 0 0-3.512z" style="fill:#fff;fill-opacity:1" id="path5359"/><path class="st0" style="fill:#fff;fill-opacity:1" id="rect5361" d="M747.425 656.884h13v3.512h-13z"/></g><g id="g5537" transform="matrix(1.1259895,0,0,1.1259895,-93.618641,-84.220649)"><path class="st0" d="M742.719 665.665a1.756 1.756 0 1 0 0 3.512 1.756 1.756 0 0 0 0-3.512z" style="fill:#fff;fill-opacity:1" id="path5363"/><path class="st0" style="fill:#fff;fill-opacity:1" id="rect5365" d="M747.425 665.665h13v3.512h-13z"/></g><g id="g5533" transform="matrix(1.1259895,0,0,1.1259895,-93.618641,-86.211159)"><path class="st0" d="M742.719 674.446a1.756 1.756 0 1 0 0 3.512 1.756 1.756 0 0 0 0-3.512z" style="fill:#fff;fill-opacity:1" id="path5367"/><path class="st0" style="fill:#fff;fill-opacity:1" id="rect5369" d="M747.425 674.446h13v3.512h-13z"/></g></g></g></g><style id="style4608">.st0{fill:#4b4b4b}</style><style id="style4626">.st0{fill:#4b4b4b}</style><style id="style4898">.st0{fill:#4b4b4b}</style><style id="style4930">.st0{fill:#4b4b4b}</style><style id="style5128">.st0{fill:#4b4b4b}</style><style id="style5151">.st0{fill:#4b4b4b}</style><style id="style5178">.st0{fill:#4b4b4b}</style><style id="style5222">.st0{fill:#4b4b4b}</style><style id="style5271">.st0{fill:#4b4b4b}</style><style id="style5355">.st0{fill:#4b4b4b}</style><style id="style5415">.st0{fill:#4b4b4b}</style><style id="style5436">.st0{fill:#4b4b4b}</style><style id="style5472">.st0{fill:#4b4b4b}</style><style id="style5569">.st0{fill:#4b4b4b}</style><style id="style5590">.st0{fill:#4b4b4b}</style><style id="style5646">.st0{fill:#4b4b4b}</style><style id="style5719">.st0{fill:#4b4b4b}</style></svg>