<svg xmlns="http://www.w3.org/2000/svg" width="30" height="30">
<g transform="translate(-357.05519,-582.15636)">
	<g transform="matrix(0.85052619,0,0,0.85052619,-239.90147,44.702842)">
		<circle r="16.809" cy="649.543" cx="719.504" id="path3347-9-9-06-7-4" style="fill:#9cc9fc;fill-rule:evenodd;stroke:#7eabdf;stroke-width:1.65400004;stroke-linecap:butt;stroke-linejoin:miter;stroke-miterlimit:4;stroke-dasharray:none;stroke-opacity:1"/>
		<g transform="translate(-72.099814,-15.495812)">
			<path style="fill:#fff" d="M781.516 653.75v4.326c9.541 0 17.301 7.759 17.301 17.301h4.325c0-11.925-9.701-21.626-21.626-21.626z" class="st0"/>
			<path style="fill:#fff" d="M781.516 662.4v4.327c4.772 0 8.65 3.879 8.65 8.65h4.326c0-7.16-5.821-12.976-12.976-12.976z" class="st0"/>
			<path style="fill:#fff" d="M783.19 670.078a3.124 3.124 0 1 0-.002 6.25 3.124 3.124 0 0 0 .002-6.25z" class="st0"/>
		</g>
	</g>
</g>
</svg>