<svg xmlns="http://www.w3.org/2000/svg" width="30" height="30" id="svg2"><g id="layer1" transform="translate(-357.05519,-582.15636)"><g id="g5798" transform="matrix(0.85052619,0,0,0.85052619,-239.90147,44.702842)"><circle r="16.809" cy="649.543" cx="719.504" id="path3347-9-9-06-7-4" style="fill:#9cc9fc;fill-opacity:1;fill-rule:evenodd;stroke:#7eabdf;stroke-width:1.65400004;stroke-linecap:butt;stroke-linejoin:miter;stroke-miterlimit:4;stroke-dasharray:none;stroke-opacity:1"/><g transform="translate(-72.099814,-15.495812)" id="g5548"><path id="path5478" style="fill:#fff;fill-opacity:1" d="M781.516 653.75v4.326c9.541 0 17.301 7.759 17.301 17.301h4.325c0-11.925-9.701-21.626-21.626-21.626z" class="st0"/><path id="path5480" style="fill:#fff;fill-opacity:1" d="M781.516 662.4v4.327c4.772 0 8.65 3.879 8.65 8.65h4.326c0-7.16-5.821-12.976-12.976-12.976z" class="st0"/><path id="path5482" style="fill:#fff;fill-opacity:1" d="M783.19 670.078a3.124 3.124 0 1 0-.002 6.25 3.124 3.124 0 0 0 .002-6.25z" class="st0"/></g></g></g><style id="style4608">.st0{fill:#4b4b4b}</style><style id="style4626">.st0{fill:#4b4b4b}</style><style id="style4898">.st0{fill:#4b4b4b}</style><style id="style4930">.st0{fill:#4b4b4b}</style><style id="style5128">.st0{fill:#4b4b4b}</style><style id="style5151">.st0{fill:#4b4b4b}</style><style id="style5178">.st0{fill:#4b4b4b}</style><style id="style5222">.st0{fill:#4b4b4b}</style><style id="style5271">.st0{fill:#4b4b4b}</style><style id="style5355">.st0{fill:#4b4b4b}</style><style id="style5415">.st0{fill:#4b4b4b}</style><style id="style5436">.st0{fill:#4b4b4b}</style><style id="style5472">.st0{fill:#4b4b4b}</style><style id="style5569">.st0{fill:#4b4b4b}</style><style id="style5590">.st0{fill:#4b4b4b}</style><style id="style5646">.st0{fill:#4b4b4b}</style><style id="style5719">.st0{fill:#4b4b4b}</style></svg>