<svg xmlns="http://www.w3.org/2000/svg" width="25" height="25">
	<g transform="translate(-236.85 -804.717)">
		<circle style="fill:#9cc9fc;fill-rule:evenodd;stroke:#7eabdf;stroke-width:1.65400004;stroke-linecap:butt;stroke-linejoin:miter;stroke-miterlimit:4;stroke-dasharray:none;stroke-opacity:1" id="path3347-9-04" cx="249.349" cy="817.217" r="11.673"/>
		<g transform="matrix(.67383 0 0 .67383 -284.06 369.09)">
			<path class="st0" d="M781.516 653.75v4.326c9.541 0 17.301 7.759 17.301 17.301h4.325c0-11.925-9.701-21.626-21.626-21.626z" style="fill:#fff"/>
			<path class="st0" d="M781.516 662.4v4.327c4.772 0 8.65 3.879 8.65 8.65h4.326c0-7.16-5.821-12.976-12.976-12.976z" style="fill:#fff"/>
			<path class="st0" d="M783.19 670.078a3.124 3.124 0 1 0-.002 6.25 3.124 3.124 0 0 0 .002-6.25z" style="fill:#fff"/>
		</g>
	</g>
</svg>