<svg xmlns="http://www.w3.org/2000/svg" width="25" height="25" id="svg2"><g id="layer1" transform="translate(-236.85 -804.717)"><circle style="fill:#9cc9fc;fill-opacity:1;fill-rule:evenodd;stroke:#7eabdf;stroke-width:1.65400004;stroke-linecap:butt;stroke-linejoin:miter;stroke-miterlimit:4;stroke-dasharray:none;stroke-opacity:1" id="path3347-9-04" cx="249.349" cy="817.217" r="11.673"/><g id="g5548" transform="matrix(.67383 0 0 .67383 -284.06 369.09)"><path class="st0" d="M781.516 653.75v4.326c9.541 0 17.301 7.759 17.301 17.301h4.325c0-11.925-9.701-21.626-21.626-21.626z" style="fill:#fff;fill-opacity:1" id="path5478"/><path class="st0" d="M781.516 662.4v4.327c4.772 0 8.65 3.879 8.65 8.65h4.326c0-7.16-5.821-12.976-12.976-12.976z" style="fill:#fff;fill-opacity:1" id="path5480"/><path class="st0" d="M783.19 670.078a3.124 3.124 0 1 0-.002 6.25 3.124 3.124 0 0 0 .002-6.25z" style="fill:#fff;fill-opacity:1" id="path5482"/></g></g><style id="style4608">.st0{fill:#4b4b4b}</style><style id="style4626">.st0{fill:#4b4b4b}</style><style id="style4898">.st0{fill:#4b4b4b}</style><style id="style4930">.st0{fill:#4b4b4b}</style><style id="style5128">.st0{fill:#4b4b4b}</style><style id="style5151">.st0{fill:#4b4b4b}</style><style id="style5178">.st0{fill:#4b4b4b}</style><style id="style5222">.st0{fill:#4b4b4b}</style><style id="style5271">.st0{fill:#4b4b4b}</style><style id="style5355">.st0{fill:#4b4b4b}</style><style id="style5415">.st0{fill:#4b4b4b}</style><style id="style5436">.st0{fill:#4b4b4b}</style><style id="style5472">.st0{fill:#4b4b4b}</style><style id="style5569">.st0{fill:#4b4b4b}</style><style id="style5590">.st0{fill:#4b4b4b}</style><style id="style5646">.st0{fill:#4b4b4b}</style><style id="style5719">.st0{fill:#4b4b4b}</style><style id="style7357">.st0{fill:#4b4b4b}</style><style id="style7387">.st0{fill:#4b4b4b}</style></svg>