<svg xmlns="http://www.w3.org/2000/svg" width="25" height="25">
<g transform="translate(-514.664,-893.14352)">
	<g transform="translate(-18.031224,-54.093672)">
		<path class="st0" d="M545.172 948.655c-.852 0-1.605.573-1.865 1.418l.846.284-.846-.284-1.675 5.435h-5.5c-.851 0-1.604.572-1.866 1.417a2.12 2.12 0 0 0-.094.625c0 .645.294 1.269.817 1.66l4.456 3.335-1.715 5.428c-.067.21-.099.425-.099.64 0 .64.291 1.26.807 1.651.343.26.75.391 1.152.39.406.001.814-.131 1.158-.394l4.424-3.38z" style="fill:#9cc9fc"/>
		<g transform="matrix(0.04882803,0,0,0.05090209,532.69527,946.70623)" style="opacity:1;fill:#7eabdf">
			<g style="fill:#7eabdf">
				<path class="st0" d="M512 209.015c0-4.653-.716-9.372-2.19-13.952l-.008-.014c-6.077-18.85-23.6-31.616-43.403-31.623H338.382L299.412 42.09c-6.062-18.858-23.59-31.652-43.41-31.659a45.6 45.6 0 0 0-43.414 31.652l19.706 6.336-19.706-6.329-38.97 121.336H45.601c-19.803.007-37.327 12.773-43.408 31.623l-.004.014a45.603 45.603 0 0 0 16.833 51.012l-.011-.014 103.702 74.452-39.919 121.191.007-.021a45.517 45.517 0 0 0-2.302 14.29 45.624 45.624 0 0 0 18.782 36.88l.015.008a45.623 45.623 0 0 0 53.749-.094l.007-.008 102.95-75.443 102.942 75.443.022.008a45.607 45.607 0 0 0 53.738.094l.011-.008a45.609 45.609 0 0 0 18.786-36.894c0-4.761-.741-9.58-2.284-14.255L389.29 320.512l103.694-74.452-.01.007A45.605 45.605 0 0 0 512 209.015zm-43.148 3.416h-.007l-116.04 83.319a20.658 20.658 0 0 0-7.587 23.288l44.684 135.611.201 1.309a4.212 4.212 0 0 1-1.752 3.423l.015-.007a4.144 4.144 0 0 1-2.467.798 4.243 4.243 0 0 1-2.506-.812l.014.007-115.169-84.405c-7.264-5.322-17.206-5.322-24.47 0L128.592 459.36a4.167 4.167 0 0 1-2.492.812 4.12 4.12 0 0 1-2.47-.805 4.216 4.216 0 0 1-1.737-3.395l.212-1.301.006-.022 44.67-135.611a20.657 20.657 0 0 0-7.592-23.288L43.152 212.431l-.007-.007c-1.119-.784-1.744-2.071-1.752-3.409l.201-1.273a4.202 4.202 0 0 1 4.006-2.92h143.11a20.684 20.684 0 0 0 19.706-14.377L252 54.74a4.202 4.202 0 0 1 4.002-2.912 4.21 4.21 0 0 1 4.002 2.919l43.579 135.698a20.682 20.682 0 0 0 19.706 14.377h143.11a4.194 4.194 0 0 1 4.002 2.92l.202 1.273c-.007 1.338-.626 2.618-1.751 3.416z" style="fill:#7eabdf"/>
			</g>
		</g>
	</g>
</g>
</svg>