<svg xmlns="http://www.w3.org/2000/svg" width="25" height="25"><path d="M25 10.108a2.41 2.41 0 0 0-.107-.71c-.297-.96-1.153-1.61-2.12-1.61h-6.25L14.62 1.612C14.324.652 13.468 0 12.5 0c-.968 0-1.824.652-2.12 1.611l.963.323-.963-.322-1.903 6.176h-6.25c-.967 0-1.823.65-2.12 1.61a2.411 2.411 0 0 0-.107.71c0 .734.334 1.442.929 1.887l5.063 3.789-1.95 6.169.001-.001a2.407 2.407 0 0 0-.112.727c0 .729.33 1.432.917 1.877.39.295.851.444 1.31.444.46 0 .924-.15 1.315-.448l5.027-3.84 5.027 3.84c.39.298.855.448 1.316.448.458 0 .919-.148 1.309-.443a2.355 2.355 0 0 0 .917-1.879c0-.242-.036-.487-.111-.725l-1.95-6.17 5.063-3.789c.594-.444.93-1.152.929-1.886zm-2.107.174l-5.666 4.241c-.36.27-.509.748-.37 1.186l2.181 6.903.01.066c0 .068-.03.133-.086.174h.001a.202.202 0 0 1-.243 0h.001l-5.623-4.297a.98.98 0 0 0-1.195 0l-5.624 4.296a.198.198 0 0 1-.242 0 .218.218 0 0 1-.085-.172l.01-.066v-.001l2.182-6.903a1.077 1.077 0 0 0-.371-1.186l-5.666-4.24v-.001a.216.216 0 0 1-.086-.174l.01-.064a.206.206 0 0 1 .196-.15h6.987c.44 0 .828-.295.963-.73l2.128-6.909a.206.206 0 0 1 .195-.148c.088 0 .168.06.196.149l2.127 6.907c.135.436.523.732.963.732h6.987c.089 0 .169.06.196.149l.01.064c0 .068-.03.134-.086.174z" fill="#7eabdf"/></svg>