<svg xmlns="http://www.w3.org/2000/svg" width="25" height="25">
	<path d="M21.678 4.589a11.372 11.372 0 00-7.746-3.486 1.382 1.382 0 00-.113 2.762 8.606 8.606 0 015.868 2.641 8.603 8.603 0 012.413 5.99c0 2.39-.965 4.54-2.53 6.108a8.606 8.606 0 01-6.108 2.53 8.605 8.605 0 01-6.109-2.53 8.607 8.607 0 01-2.515-6.609l1.646.813a.61.61 0 00.548.004.47.47 0 00.255-.43l-.163-7.237a.599.599 0 00-.342-.505.594.594 0 00-.61.036L.33 8.948a.466.466 0 00-.186.462c.03.182.157.345.336.434l1.725.851a11.374 11.374 0 003.194 9.864 11.374 11.374 0 008.064 3.34c3.144 0 6.003-1.28 8.062-3.34a11.375 11.375 0 003.34-8.063 11.37 11.37 0 00-3.186-7.907z" fill="#7eabdf"/>
</svg>