<svg xmlns="http://www.w3.org/2000/svg" width="25" height="25" id="svg2"><g id="layer1" transform="translate(-640.66 -857.563)"><path id="path5226" d="M665.026 866.925a8.085 8.085 0 0 0-2.918-3.545 8.033 8.033 0 0 0-4.507-1.377h-2.298l.53-1.26a.423.423 0 0 0-.586-.537l-5.659 2.991a.42.42 0 1 0 0 .746l5.659 2.992a.422.422 0 0 0 .586-.537l-.53-1.26h2.298a4.91 4.91 0 0 1 4.085 2.172c.531.788.84 1.727.84 2.753 0 .684-.137 1.328-.386 1.916a4.947 4.947 0 0 1-1.786 2.168 4.897 4.897 0 0 1-2.753.84v3.135a8.05 8.05 0 0 0 6.682-3.552 8.032 8.032 0 0 0 1.377-4.507 8.048 8.048 0 0 0-.634-3.138z" class="st0" fill="#666"/><path id="path5228" d="M656.733 876.181l-5.659-2.99a.422.422 0 0 0-.586.536l.53 1.26h-2.298a4.91 4.91 0 0 1-4.085-2.172 4.893 4.893 0 0 1-.84-2.752c0-.685.137-1.329.386-1.917.373-.882 1-1.637 1.786-2.168a4.898 4.898 0 0 1 2.753-.84v-3.135a8.05 8.05 0 0 0-6.682 3.552 8.03 8.03 0 0 0-1.378 4.508 8.044 8.044 0 0 0 3.553 6.682 8.033 8.033 0 0 0 4.507 1.377h2.297l-.53 1.26a.423.423 0 0 0 .587.537l5.659-2.99a.42.42 0 1 0 0-.747z" class="st0" fill="#666"/></g><style id="style4608">.st0{fill:#4b4b4b}</style><style id="style4626">.st0{fill:#4b4b4b}</style><style id="style4898">.st0{fill:#4b4b4b}</style><style id="style4930">.st0{fill:#4b4b4b}</style><style id="style5128">.st0{fill:#4b4b4b}</style><style id="style5151">.st0{fill:#4b4b4b}</style><style id="style5178">.st0{fill:#4b4b4b}</style><style id="style5222">.st0{fill:#4b4b4b}</style></svg>