<svg xmlns="http://www.w3.org/2000/svg" width="25" height="25" id="svg2"><g id="layer1" transform="translate(-640.66046,-857.5625)"><g id="g5247" transform="matrix(1.0638175,0,0,1.0638175,-63.445616,-86.290045)"><path class="st0" d="M684.772 896.032a7.6 7.6 0 0 0-2.744-3.332 7.55 7.55 0 0 0-4.237-1.294h-2.16l.499-1.184a.398.398 0 0 0-.552-.505l-5.318 2.811a.395.395 0 1 0 0 .702l5.318 2.812a.397.397 0 0 0 .552-.505l-.499-1.185h2.16a4.616 4.616 0 0 1 3.84 2.042c.5.741.79 1.624.79 2.588 0 .643-.129 1.248-.363 1.801a4.65 4.65 0 0 1-1.679 2.039c-.74.499-1.624.789-2.588.79v2.946a7.566 7.566 0 0 0 6.282-3.34 7.55 7.55 0 0 0 1.295-4.236 7.565 7.565 0 0 0-.596-2.95z" style="fill:#7eabdf;fill-opacity:1" id="path5226"/><path class="st0" d="M676.975 904.734l-5.318-2.812a.397.397 0 0 0-.552.505l.499 1.184h-2.16a4.615 4.615 0 0 1-3.84-2.042 4.6 4.6 0 0 1-.79-2.587 4.613 4.613 0 0 1 2.042-3.84c.74-.5 1.624-.79 2.588-.79v-2.946a7.567 7.567 0 0 0-6.282 3.339 7.548 7.548 0 0 0-1.295 4.237 7.562 7.562 0 0 0 3.34 6.281 7.55 7.55 0 0 0 4.237 1.295h2.159l-.498 1.183a.398.398 0 0 0 .551.506l5.32-2.811a.395.395 0 0 0 .21-.351.395.395 0 0 0-.21-.351z" style="fill:#7eabdf;fill-opacity:1" id="path5228"/></g></g><style id="style4608">.st0{fill:#4b4b4b}</style><style id="style4626">.st0{fill:#4b4b4b}</style><style id="style4898">.st0{fill:#4b4b4b}</style><style id="style4930">.st0{fill:#4b4b4b}</style><style id="style5128">.st0{fill:#4b4b4b}</style><style id="style5151">.st0{fill:#4b4b4b}</style><style id="style5178">.st0{fill:#4b4b4b}</style><style id="style5222">.st0{fill:#4b4b4b}</style></svg>