<svg xmlns="http://www.w3.org/2000/svg" width="30" height="30">
	<g transform="matrix(.48638 0 0 .48607 -147.631 -378.765)">
		<path style="fill:#7eabdf" d="M343.653 814.426c6.293-8.666 5.538-20.895-2.27-28.704-8.647-8.647-22.719-8.647-31.365 0-8.649 8.648-8.649 22.717 0 31.366 7.808 7.808 20.037 8.563 28.702 2.271l1.714 1.713 4.933-4.933-1.714-1.713zm-6.57-1.637c-6.286 6.284-16.479 6.285-22.766 0-6.286-6.287-6.286-16.481 0-22.767 6.287-6.285 16.48-6.285 22.765 0 6.287 6.286 6.287 16.48 0 22.767z" class="st0"/>
		<path style="fill:#7eabdf" d="M316.688 793.608c-3.264 4.193-3.535 9.962-.814 14.419a.896.896 0 0 0 1.527-.933c-2.337-3.82-2.104-8.794.697-12.388" class="st0"/>
		<path style="fill:#7eabdf" d="M363.965 832.107l-16.654-14.877-5.784 5.784 14.876 16.655c1.512 1.957 4.236 1.67 6.684-.778 2.446-2.446 2.836-5.272.878-6.784z" class="st0"/>
	</g>
</svg>