<svg xmlns="http://www.w3.org/2000/svg" width="30" height="30"><g transform="matrix(.85053 0 0 .85053 -695.888 -551.009)"><circle r="16.809" cy="665.481" cx="835.822" fill="#9cc9fc" fill-rule="evenodd" stroke="#7eabdf" stroke-width="1.654"/><path d="M847.54 667.335a.847.847 0 0 0 .782-.844v-2.02c0-.443-.34-.81-.781-.846l-2.677-.209a.45.45 0 0 1-.383-.278l-.88-2.124a.448.448 0 0 1 .073-.467l1.746-2.041a.847.847 0 0 0-.045-1.15l-1.428-1.428a.847.847 0 0 0-1.15-.045l-2.042 1.745a.451.451 0 0 1-.466.074l-2.126-.88a.454.454 0 0 1-.278-.383l-.208-2.676a.847.847 0 0 0-.845-.782h-2.02c-.443 0-.81.34-.845.782l-.209 2.676a.451.451 0 0 1-.278.382l-2.125.882a.453.453 0 0 1-.467-.074l-2.04-1.746a.847.847 0 0 0-1.15.045l-1.429 1.428a.848.848 0 0 0-.045 1.15l1.746 2.042a.45.45 0 0 1 .073.466l-.88 2.124a.449.449 0 0 1-.382.278l-2.678.21a.848.848 0 0 0-.781.845v2.019c0 .443.34.811.781.845l2.678.209a.452.452 0 0 1 .382.278l.88 2.125a.452.452 0 0 1-.073.467l-1.746 2.042a.848.848 0 0 0 .045 1.15l1.428 1.428a.847.847 0 0 0 1.15.044l2.041-1.746c.13-.11.31-.139.467-.073l2.126.88a.452.452 0 0 1 .277.383l.21 2.677a.848.848 0 0 0 .844.782h2.02c.443 0 .81-.341.845-.782l.208-2.677a.454.454 0 0 1 .279-.383l2.125-.88a.451.451 0 0 1 .466.073l2.042 1.746a.847.847 0 0 0 1.15-.044l1.428-1.429a.847.847 0 0 0 .045-1.15l-1.746-2.041a.452.452 0 0 1-.073-.467l.88-2.125a.453.453 0 0 1 .383-.278l2.677-.209zm-11.718 2.37a4.2 4.2 0 0 1-2.988-1.237 4.2 4.2 0 0 1-1.237-2.988c0-1.128.44-2.19 1.237-2.987a4.195 4.195 0 0 1 2.988-1.238c1.13 0 2.19.44 2.988 1.238a4.195 4.195 0 0 1 1.237 2.987 4.2 4.2 0 0 1-1.237 2.988 4.2 4.2 0 0 1-2.988 1.237z" fill="#fff"/></g></svg>