<svg xmlns="http://www.w3.org/2000/svg" width="30" height="30">
	<circle cx="15.004" cy="15.003" r="14.297" fill="#9cc9fc" fill-rule="evenodd" stroke="#7eabdf" stroke-width="1.407"/>
	<path d="M20.085 13.95a4.788 4.788 0 004.785-4.79 4.787 4.787 0 10-9.575 0c0 .49.073.96.208 1.406l-4.855 2.932a4.265 4.265 0 00-7.41 2.882 4.263 4.263 0 007.51 2.767l3.669 1.935a3.742 3.742 0 107.31 1.125 3.738 3.738 0 00-3.742-3.742c-1.133 0-2.15.505-2.836 1.303l-3.58-2.089c.131-.408.2-.844.2-1.298 0-.44-.065-.863-.192-1.26l4.986-2.717a4.772 4.772 0 003.522 1.545zm-2.3-7.087a3.24 3.24 0 012.3-.951 3.238 3.238 0 013.244 3.248 3.245 3.245 0 01-3.244 3.248 3.204 3.204 0 01-2.104-.778h-.004a2.668 2.668 0 01-.193-.174 3.254 3.254 0 010-4.593zM10.181 16.87a2.682 2.682 0 01-.852 1.53 2.705 2.705 0 01-1.826.705 2.71 2.71 0 01-1.927-.798 2.717 2.717 0 01-.797-1.926c0-.755.304-1.43.797-1.927a2.71 2.71 0 011.927-.798 2.707 2.707 0 011.927.798 2.714 2.714 0 01.75 2.416zm5.637 4.951a2.187 2.187 0 01.701-1.252c.39-.354.898-.562 1.465-.562a2.18 2.18 0 011.556.643c.401.4.644.944.644 1.557 0 .609-.243 1.152-.644 1.552-.4.401-.944.644-1.556.644a2.178 2.178 0 01-1.553-.644 2.195 2.195 0 01-.613-1.938z" fill="#fff"/>
</svg>