<svg xmlns="http://www.w3.org/2000/svg" width="25" height="25" id="svg2"><g id="layer1" transform="translate(-659.33064,-882.91475)"><g id="g4960" transform="translate(5.5147421,23.037044)"><path class="st0" d="M674.274 875.735a.44.44 0 0 0-.7.39l.12 1.375a8.376 8.376 0 0 1-1.598-.389 7.738 7.738 0 0 1-1.77-.9c-.807-.55-1.525-1.247-2.2-2.054-.258-.308-.51-.633-.758-.97-.136.203-.269.402-.393.593-.475.72-.984 1.473-1.545 2.213a16.377 16.377 0 0 0 1.677 1.801c.966.883 2.103 1.66 3.446 2.206.958.39 2.017.656 3.175.777l-.154 1.76a.44.44 0 0 0 .7.39l4.364-3.244a.438.438 0 0 0 0-.704l-4.364-3.244z" style="fill:#7eabdf;fill-opacity:1" id="path4934"/><path class="st0" d="M657.585 867.644a7.73 7.73 0 0 1 1.768.9c.809.55 1.527 1.247 2.202 2.054.258.309.51.634.758.97.136-.203.268-.402.393-.593.474-.72.983-1.472 1.545-2.213a16.384 16.384 0 0 0-1.677-1.8c-.966-.884-2.103-1.662-3.446-2.207-1.343-.547-2.883-.854-4.62-.853h-.692v3.25h.692c1.21 0 2.208.184 3.077.492z" style="fill:#7eabdf;fill-opacity:1" id="path4936"/><path class="st0" d="M667.903 870.87c.443-.552.905-1.06 1.396-1.509.738-.673 1.537-1.213 2.477-1.595a8.176 8.176 0 0 1 1.918-.512l-.12 1.376a.44.44 0 0 0 .7.39l4.364-3.243a.44.44 0 0 0 0-.705l-4.364-3.244a.439.439 0 0 0-.7.39l.154 1.76a11.75 11.75 0 0 0-2.72.604c-.925.328-1.76.766-2.51 1.276-1.124.765-2.056 1.687-2.865 2.656-.81.969-1.502 1.986-2.15 2.971-.557.846-1.114 1.662-1.705 2.4-.443.553-.905 1.06-1.396 1.51-.738.673-1.537 1.212-2.478 1.595-.94.381-2.034.613-3.396.614h-.692v3.25h.692c1.544 0 2.932-.242 4.165-.68a10.98 10.98 0 0 0 2.508-1.276c1.126-.765 2.057-1.688 2.866-2.656.811-.97 1.503-1.987 2.15-2.972.557-.846 1.115-1.662 1.706-2.4z" style="fill:#7eabdf;fill-opacity:1" id="path4938"/></g></g><style id="style4608">.st0{fill:#4b4b4b}</style><style id="style4626">.st0{fill:#4b4b4b}</style><style id="style4898">.st0{fill:#4b4b4b}</style><style id="style4930">.st0{fill:#4b4b4b}</style></svg>