<svg xmlns="http://www.w3.org/2000/svg" width="30" height="30"><g transform="matrix(.85053 0 0 .85053 -234.305 -490.655)"><circle r="16.809" cy="594.52" cx="293.118" fill="#9cc9fc" fill-rule="evenodd" stroke="#7eabdf" stroke-width="1.654"/><path d="M304.375 591.895c-.16-.495-.62-.831-1.14-.831h-6.881l-2.096-6.526a1.198 1.198 0 0 0-2.28 0l-2.095 6.526H283a1.198 1.198 0 0 0-.698 2.17l5.58 4.006-2.148 6.52a1.197 1.197 0 0 0 1.845 1.341l5.538-4.058 5.539 4.059a1.198 1.198 0 0 0 1.845-1.341l-2.148-6.52 5.58-4.007c.422-.303.6-.844.441-1.34z" fill="#fff"/></g></svg>