<svg xmlns="http://www.w3.org/2000/svg" width="30" height="30" id="svg2"><g id="layer1" transform="translate(-438.62828,-582.15636)"><g id="g5809" transform="matrix(0.85052601,0,0,0.85052601,-297.94793,32.141303)"><circle r="16.809" cy="664.313" cx="883.66" id="path3347-9-9-06-7-4-0-98" style="fill:#9cc9fc;fill-opacity:1;fill-rule:evenodd;stroke:#7eabdf;stroke-width:1.65400004;stroke-linecap:butt;stroke-linejoin:miter;stroke-miterlimit:4;stroke-dasharray:none;stroke-opacity:1"/><path class="st0" d="M894.829 671.405h-18.69a1.383 1.383 0 0 1-1.382-1.383v-14.667c0-.764-.62-1.383-1.383-1.383h-.16c-.764 0-1.383.62-1.383 1.383v17.593c0 .764.619 1.383 1.383 1.383h21.615c.764 0 1.383-.62 1.383-1.383v-.16c0-.764-.62-1.383-1.383-1.383z" style="fill:#fff;fill-opacity:1" id="path5594"/><path class="st0" d="M878.765 669.965l3.699-6.168 5.184 4.13a1.731 1.731 0 0 0 2.352-.18l4.877-7.778a1.734 1.734 0 0 0-2.548-2.352l-3.781 6.593-5.204-4.143a1.733 1.733 0 0 0-2.372.199l-4.789 7.387a1.733 1.733 0 1 0 2.582 2.312z" style="fill:#fff;fill-opacity:1" id="path5596"/></g></g><style id="style4608">.st0{fill:#4b4b4b}</style><style id="style4626">.st0{fill:#4b4b4b}</style><style id="style4898">.st0{fill:#4b4b4b}</style><style id="style4930">.st0{fill:#4b4b4b}</style><style id="style5128">.st0{fill:#4b4b4b}</style><style id="style5151">.st0{fill:#4b4b4b}</style><style id="style5178">.st0{fill:#4b4b4b}</style><style id="style5222">.st0{fill:#4b4b4b}</style><style id="style5271">.st0{fill:#4b4b4b}</style><style id="style5355">.st0{fill:#4b4b4b}</style><style id="style5415">.st0{fill:#4b4b4b}</style><style id="style5436">.st0{fill:#4b4b4b}</style><style id="style5472">.st0{fill:#4b4b4b}</style><style id="style5569">.st0{fill:#4b4b4b}</style><style id="style5590">.st0{fill:#4b4b4b}</style><style id="style5646">.st0{fill:#4b4b4b}</style><style id="style5719">.st0{fill:#4b4b4b}</style></svg>