<svg xmlns="http://www.w3.org/2000/svg" width="25" height="25">
	<g transform="translate(-700.67733,-865.61104)">
		<g transform="translate(29.595566,-10.517386)">
			<path class="st0" d="M684.175 876.722c-.35 0-.699.015-1.044.045l.24 2.762c.264-.023.532-.034.804-.034a9.1 9.1 0 0 1 6.459 2.675 9.098 9.098 0 0 1 2.674 6.459 9.096 9.096 0 0 1-2.674 6.458 9.1 9.1 0 0 1-6.46 2.675 9.1 9.1 0 0 1-8.51-5.834l1.52-.214-3.918-5.725-.876 2.64h-.121c0 .107.013.21.016.317l-1.203 3.626 1.778-.25c1.555 4.766 6.03 8.213 11.315 8.213 6.577 0 11.906-5.33 11.907-11.906-.001-6.577-5.33-11.907-11.907-11.907z" style="fill:#7eabdf"/>
			<path class="st0" d="M676.601 883.522c.15-.221.31-.436.479-.646l-2.156-1.744c-.218.27-.426.549-.62.839l2.297 1.551z" style="fill:#7eabdf"/>
			<path class="st0" d="M680.543 880.245c.443-.192.905-.35 1.381-.47l-.68-2.69c-.624.159-1.226.366-1.805.617l1.104 2.543z" style="fill:#7eabdf"/>
			<path class="st0" d="M679.253 880.934l-1.497-2.335c-.537.344-1.044.73-1.516 1.153l1.848 2.067a9.119 9.119 0 0 1 1.165-.885z" style="fill:#7eabdf"/>
		</g>
	</g>
</svg>