<svg xmlns="http://www.w3.org/2000/svg" width="25" height="25" id="svg2"><g id="layer1" transform="translate(-236.565 -965.73)"><g id="g7973" transform="matrix(.83333 0 0 .83333 -10.387 179.732)"><path class="st0" d="M296.342 955.284v5.83c0 1.21.981 2.192 2.192 2.192h4.082v-10.214h-4.082c-1.21 0-2.192.981-2.192 2.192z" style="fill:#7eabdf;fill-opacity:1" id="path7361"/><path class="st0" d="M312.767 949.001a.744.744 0 0 0-.727-.029l-8.11 4.12v10.214l8.11 4.12a.746.746 0 0 0 1.082-.664v-17.126c0-.26-.134-.5-.355-.635z" style="fill:#7eabdf;fill-opacity:1" id="path7363"/><path class="st0" d="M320.279 952.73a.802.802 0 1 0-1.193 1.074 6.545 6.545 0 0 1 1.683 4.395c0 1.578-.56 3.15-1.683 4.394a.803.803 0 0 0 1.192 1.075 8.153 8.153 0 0 0 2.096-5.47c0-1.956-.699-3.919-2.095-5.468z" style="fill:#7eabdf;fill-opacity:1" id="path7365"/><path class="st0" d="M323.23 950.074a.802.802 0 0 0-1.193 1.074c1.8 1.998 2.7 4.521 2.7 7.05 0 2.53-.9 5.053-2.7 7.051a.802.802 0 1 0 1.192 1.075 12.115 12.115 0 0 0 3.113-8.125c0-2.908-1.038-5.823-3.113-8.126z" style="fill:#7eabdf;fill-opacity:1" id="path7367"/><path class="st0" d="M316.191 955.33a.802.802 0 0 0-.059 1.133c.445.494.666 1.112.666 1.736 0 .623-.22 1.242-.666 1.736a.802.802 0 1 0 1.192 1.074 4.19 4.19 0 0 0 1.08-2.81c0-1.004-.361-2.013-1.08-2.81a.802.802 0 0 0-1.133-.06z" style="fill:#7eabdf;fill-opacity:1" id="path7369"/></g></g><style id="style4608">.st0{fill:#4b4b4b}</style><style id="style4626">.st0{fill:#4b4b4b}</style><style id="style4898">.st0{fill:#4b4b4b}</style><style id="style4930">.st0{fill:#4b4b4b}</style><style id="style5128">.st0{fill:#4b4b4b}</style><style id="style5151">.st0{fill:#4b4b4b}</style><style id="style5178">.st0{fill:#4b4b4b}</style><style id="style5222">.st0{fill:#4b4b4b}</style><style id="style5271">.st0{fill:#4b4b4b}</style><style id="style5355">.st0{fill:#4b4b4b}</style><style id="style5415">.st0{fill:#4b4b4b}</style><style id="style5436">.st0{fill:#4b4b4b}</style><style id="style5472">.st0{fill:#4b4b4b}</style><style id="style5569">.st0{fill:#4b4b4b}</style><style id="style5590">.st0{fill:#4b4b4b}</style><style id="style5646">.st0{fill:#4b4b4b}</style><style id="style5719">.st0{fill:#4b4b4b}</style><style id="style7357">.st0{fill:#4b4b4b}</style><style id="style7387">.st0{fill:#4b4b4b}</style></svg>