<?xml version="1.0" encoding="UTF-8" standalone="no"?>
<!-- Generator: Adobe Illustrator 21.0.0, SVG Export Plug-In . SVG Version: 6.00 Build 0)  -->

<svg
   xmlns:dc="http://purl.org/dc/elements/1.1/"
   xmlns:cc="http://creativecommons.org/ns#"
   xmlns:rdf="http://www.w3.org/1999/02/22-rdf-syntax-ns#"
   xmlns:svg="http://www.w3.org/2000/svg"
   xmlns="http://www.w3.org/2000/svg"
   xmlns:sodipodi="http://sodipodi.sourceforge.net/DTD/sodipodi-0.dtd"
   xmlns:inkscape="http://www.inkscape.org/namespaces/inkscape"
   version="1.1"
   id="Layer_1"
   x="0px"
   y="0px"
   width="400px"
   height="120px"
   viewBox="0 0 400 120"
   style="enable-background:new 0 0 400 120;"
   xml:space="preserve"
   inkscape:version="0.91 r13725"
   sodipodi:docname="jpsonic-controls.svg"><metadata
     id="metadata3451"><rdf:RDF><cc:Work
         rdf:about=""><dc:format>image/svg+xml</dc:format><dc:type
           rdf:resource="http://purl.org/dc/dcmitype/StillImage" /><dc:title /></cc:Work></rdf:RDF></metadata><defs
     id="defs3449" /><sodipodi:namedview
     pagecolor="#ffffff"
     bordercolor="#666666"
     borderopacity="1"
     objecttolerance="10"
     gridtolerance="10"
     guidetolerance="10"
     inkscape:pageopacity="0"
     inkscape:pageshadow="2"
     inkscape:window-width="1920"
     inkscape:window-height="1057"
     id="namedview3447"
     showgrid="false"
     inkscape:zoom="6.2402173"
     inkscape:cx="31.092849"
     inkscape:cy="106.1105"
     inkscape:window-x="-8"
     inkscape:window-y="-8"
     inkscape:window-maximized="1"
     inkscape:current-layer="Layer_1" /><style
     type="text/css"
     id="style3337">
	.st0{fill:#000000;width:16px;height:16px}
	.st1{fill:none;stroke:#000000;stroke-width:1.5;stroke-linecap:round;}
	.st2{fill:none;stroke:#000000;stroke-width:2;stroke-linecap:round;}
	.st3{fill:none;stroke:#000000;}
	.st4{fill:#231F20;}
	.st5{opacity:0.75;fill:none;stroke:#000000;stroke-width:5;enable-background:new;}
	.st6{fill:none;stroke:#000000;stroke-width:5;}
	.st7{opacity:0.4;fill:#000000;enable-background:new;}
	.st8{opacity:0.6;fill:#000000;enable-background:new;}
	.st9{opacity:0.8;fill:#000000;enable-background:new;}
	.st10{opacity:0.9;fill:#000000;enable-background:new;}
	.st11{opacity:0.3;fill:#000000;enable-background:new;}
	.st12{opacity:0.5;fill:#000000;enable-background:new;}
	.st13{opacity:0.7;fill:#000000;enable-background:new;}
</style><g
     id="play"
     style="fill:#7eabdf;fill-opacity:1"><path
       style="fill:#7eabdf;fill-opacity:1"
       inkscape:connector-curvature="0"
       id="path3341"
       d="m 16.5,8.5 c 0.3,0.1 0.4,0.5 0.2,0.8 -0.1,0.1 -0.1,0.2 -0.2,0.2 l -11.4,7 C 4.6,16.8 4.3,16.6 4.3,16 L 4.3,2 C 4.3,1.5 4.7,1.2 5.1,1.5 l 11.4,7 z"
       class="st0" /></g><g
     id="pause"
     inkscape:label="#pause"><path
       class="st0"
       d="m 24,1 2.2,0 c 0.6,0 1,0.4 1,1 l 0,14 c 0,0.6 -0.4,1 -1,1 L 24,17 c -0.6,0 -1,-0.4 -1,-1 L 23,2 c 0,-0.5 0.4,-1 1,-1 z"
       id="path3346"
       inkscape:connector-curvature="0"
       style="fill:#7eabdf;fill-opacity:1" /><path
       class="st0"
       d="M 33.8,1 36,1 c 0.6,0 1,0.4 1,1 l 0,14 c 0,0.6 -0.4,1 -1,1 l -2.2,0 c -0.6,0 -1,-0.4 -1,-1 l 0,-14 c 0,-0.5 0.4,-1 1,-1 z"
       id="path3348"
       inkscape:connector-curvature="0"
       style="fill:#7eabdf;fill-opacity:1" /></g><g
     id="fullscreen"><g
       id="enter"><path
         style="fill:#000000"
         inkscape:connector-curvature="0"
         id="path3352"
         d="m 81,1.4 c 0,-0.6 0.4,-1 1,-1 l 5.4,0 c 0.6,0 0.7,0.3 0.3,0.7 l -6,6 C 81.3,7.5 81,7.4 81,6.8 l 0,-5.4 z"
         class="st0" /><path
         style="fill:#000000"
         inkscape:connector-curvature="0"
         id="path3354"
         d="m 81,17.2 c 0,0.6 0.4,1 1,1 l 5.4,0 c 0.6,0 0.7,-0.3 0.3,-0.7 l -6,-6 C 81.3,11.1 81,11.2 81,11.8 l 0,5.4 z"
         class="st0" /><path
         style="fill:#000000"
         inkscape:connector-curvature="0"
         id="path3356"
         d="m 98.8,1.4 c 0,-0.6 -0.4,-1 -1,-1 l -5.4,0 c -0.6,0 -0.7,0.3 -0.3,0.7 l 6,6 c 0.4,0.4 0.7,0.3 0.7,-0.3 0,0 0,-5.4 0,-5.4 z"
         class="st0" /><path
         style="fill:#000000"
         inkscape:connector-curvature="0"
         id="path3358"
         d="m 98.8,17.2 c 0,0.6 -0.4,1 -1,1 l -5.4,0 c -0.6,0 -0.7,-0.3 -0.3,-0.7 l 6,-6 c 0.4,-0.4 0.7,-0.3 0.7,0.3 0,0 0,5.4 0,5.4 z"
         class="st0" /></g><g
       id="exit"><g
         id="g3361"><path
           style="fill:#000000"
           inkscape:connector-curvature="0"
           id="path3363"
           d="m 112.7,5 c 0,0.6 0.4,1 1,1 l 4.1,0 c 0.6,0 0.7,-0.3 0.3,-0.7 l -4.7,-4.7 c -0.4,-0.4 -0.7,-0.3 -0.7,0.3 0,0 0,4.1 0,4.1 z"
           class="st0" /><path
           style="fill:#000000"
           inkscape:connector-curvature="0"
           id="path3365"
           d="m 105.6,6 c 0.6,0 1,-0.4 1,-1 l 0,-4.1 c 0,-0.6 -0.3,-0.7 -0.7,-0.3 l -4.7,4.7 c -0.4,0.4 -0.3,0.7 0.3,0.7 l 4.1,0 z"
           class="st0" /><path
           style="fill:#000000"
           inkscape:connector-curvature="0"
           id="path3367"
           d="m 106.6,13.1 c 0,-0.6 -0.4,-1 -1,-1 l -4.1,0 c -0.6,0 -0.7,0.3 -0.3,0.7 l 4.7,4.7 c 0.4,0.4 0.7,0.3 0.7,-0.3 0,0 0,-4.1 0,-4.1 z"
           class="st0" /><path
           style="fill:#000000"
           inkscape:connector-curvature="0"
           id="path3369"
           d="m 113.7,12.1 c -0.6,0 -1,0.4 -1,1 l 0,4.1 c 0,0.5 0.3,0.7 0.7,0.3 l 4.7,-4.7 c 0.4,-0.4 0.3,-0.7 -0.3,-0.7 l -4.1,0 z"
           class="st0" /></g></g></g><g
     id="closed_captions"><path
       style="fill:none;stroke:#000000"
       inkscape:connector-curvature="0"
       id="path3387"
       d="m 128.7,8.6 c -6.2,-4.2 -6.5,7.8 0,3.9"
       class="st3" /><path
       style="fill:none;stroke:#000000"
       inkscape:connector-curvature="0"
       id="path3389"
       d="m 135.2,8.6 c -6.2,-4.2 -6.5,7.8 0,3.9"
       class="st3" /><path
       style="fill:#000000"
       inkscape:connector-curvature="0"
       id="path3391"
       d="m 122.2,3.4 15.7,0 0,13.1 -15.7,0 0,-13.1 z m -1.4,-1.4 0,15.7 18.3,0 0,-15.7 -18.3,0 z"
       class="st0" /></g><g
     id="g3393"><path
       style="fill:#000000"
       inkscape:connector-curvature="0"
       id="path3395"
       d="m 143.2,3 14,0 c 1.1,0 2,0.9 2,2 l 0,10 c 0,1.1 -0.9,2 -2,2 l -14,0 c -1.1,0 -2,-0.9 -2,-2 l 0,-10 c 0,-1.1 0.9,-2 2,-2 z"
       class="st0" /><path
       style="fill:#231f20"
       inkscape:connector-curvature="0"
       id="path3397"
       d="m 146.4,13.8 c -0.8,0 -1.6,-0.4 -2.1,-1 -1.1,-1.4 -1,-3.4 0.1,-4.8 0.5,-0.6 2,-1.7 4.6,0.2 L 148.4,9 c -1.4,-1 -2.6,-1.1 -3.3,-0.3 -0.8,1 -0.8,2.4 -0.1,3.5 0.7,0.9 1.9,0.8 3.4,-0.1 l 0.5,0.9 c -0.7,0.5 -1.6,0.7 -2.5,0.8 z"
       class="st4" /><path
       style="fill:#231f20"
       inkscape:connector-curvature="0"
       id="path3399"
       d="m 153.9,13.8 c -0.8,0 -1.6,-0.4 -2.1,-1 -1.1,-1.4 -1,-3.4 0.1,-4.8 0.5,-0.6 2,-1.7 4.6,0.2 L 156,9 c -1.4,-1 -2.6,-1.1 -3.3,-0.3 -0.8,1 -0.8,2.4 -0.1,3.5 0.7,0.9 1.9,0.8 3.4,-0.1 l 0.5,0.9 c -0.8,0.5 -1.7,0.7 -2.6,0.8 z"
       class="st4" /></g><g
     id="replay"><path
       class="st0"
       d="M178,9.4c0,0.4-0.4,0.7-0.9,0.7c-0.1,0-0.2,0-0.2-0.1l-4.9-1.8c-0.5-0.2-0.6-0.6-0.1-0.8l6.2-3.6   c0.5-0.3,0.8-0.1,0.7,0.5L178,9.4z"
       id="path3430" /><path
       class="st0"
       d="M169.4,15.9c-1,0-2-0.2-2.9-0.7c-2-1-3.2-3-3.2-5.2c0.1-3.4,2.9-6,6.3-6c2.5,0.1,4.8,1.7,5.6,4.1l0.1-0.1   l2.1,1.1c-0.6-4.4-4.7-7.5-9.1-6.9c-3.9,0.6-6.9,3.9-7,7.9c0,2.9,1.7,5.6,4.3,7c1.2,0.6,2.5,0.9,3.8,1c2.6,0,5-1.2,6.6-3.3   l-1.8-0.9C173,15.1,171.2,15.9,169.4,15.9z"
       id="path3432" /></g><g
     id="chapters"><path
       class="st0"
       d="M183.4,3.2L183.4,3.2c0.8,0,1.5,0.7,1.5,1.5l0,0c0,0.8-0.7,1.5-1.5,1.5l0,0c-0.8,0-1.5-0.7-1.5-1.5l0,0   C181.9,3.8,182.6,3.2,183.4,3.2z"
       id="path3435" /><path
       class="st0"
       d="M188.5,3.2h8.5c0.9,0,1.5,0.7,1.5,1.5l0,0c0,0.8-0.7,1.5-1.5,1.5h-8.5c-0.9,0-1.5-0.7-1.5-1.5l0,0   C186.9,3.8,187.6,3.2,188.5,3.2z"
       id="path3437" /><path
       class="st0"
       d="M183.4,8.2L183.4,8.2c0.8,0,1.5,0.7,1.5,1.5l0,0c0,0.8-0.7,1.5-1.5,1.5l0,0c-0.8,0-1.5-0.7-1.5-1.5l0,0   C181.9,8.8,182.6,8.2,183.4,8.2z"
       id="path3439" /><path
       class="st0"
       d="M188.5,8.2h8.5c0.9,0,1.5,0.7,1.5,1.5l0,0c0,0.8-0.7,1.5-1.5,1.5h-8.5c-0.9,0-1.5-0.7-1.5-1.5l0,0   C186.9,8.8,187.6,8.2,188.5,8.2z"
       id="path3441" /><path
       class="st0"
       d="M183.4,13.2L183.4,13.2c0.8,0,1.5,0.7,1.5,1.5l0,0c0,0.8-0.7,1.5-1.5,1.5l0,0c-0.8,0-1.5-0.7-1.5-1.5l0,0   C181.9,13.8,182.6,13.2,183.4,13.2z"
       id="path3443" /><path
       class="st0"
       d="M188.5,13.2h8.5c0.9,0,1.5,0.7,1.5,1.5l0,0c0,0.8-0.7,1.5-1.5,1.5h-8.5c-0.9,0-1.5-0.7-1.5-1.5l0,0   C186.9,13.8,187.6,13.2,188.5,13.2z"
       id="path3445" /></g><g
     id="g4305"><g
       id="loading"><circle
         class="st0"
         cx="201.89999"
         cy="47.099998"
         r="8.1000004"
         id="circle3413"
         style="fill:#000000" /><circle
         class="st7"
         cx="233.89999"
         cy="79"
         r="5"
         id="circle3415"
         style="opacity:0.4;fill:#000000;enable-background:new" /><circle
         class="st8"
         cx="201.89999"
         cy="110.9"
         r="6"
         id="circle3417"
         style="opacity:0.6;fill:#000000;enable-background:new" /><circle
         class="st9"
         cx="170.10001"
         cy="79"
         r="7"
         id="circle3419"
         style="opacity:0.8;fill:#000000;enable-background:new" /><circle
         class="st10"
         cx="178.2"
         cy="56.299999"
         r="7.5"
         id="circle3421"
         style="opacity:0.9;fill:#000000;enable-background:new" /><circle
         class="st11"
         cx="226.3"
         cy="56.099998"
         r="4.5"
         id="circle3423"
         style="opacity:0.3;fill:#000000;enable-background:new" /><circle
         class="st12"
         cx="225.8"
         cy="102.8"
         r="5.5"
         id="circle3425"
         style="opacity:0.5;fill:#000000;enable-background:new" /><circle
         class="st13"
         cx="178.2"
         cy="102.8"
         r="6.5"
         id="circle3427"
         style="opacity:0.7;fill:#000000;enable-background:new" /></g><g
       transform="matrix(3.1999992,0,0,3.1999992,-1788.0241,-3069.1582)"
       id="g4422"><circle
         style="fill:#9cc9fc;fill-opacity:1;fill-rule:evenodd;stroke:#7eabdf;stroke-width:1.65369654;stroke-linecap:butt;stroke-linejoin:miter;stroke-miterlimit:4;stroke-dasharray:none;stroke-opacity:1"
         id="path3347-9-0"
         cx="596.25769"
         cy="983.79968"
         r="11.673155" /><path
         id="path4208-0"
         style="fill:#ffffff;fill-opacity:1"
         d="m 593.18289,978.13868 c -0.0596,-0.038 -0.13568,-0.044 -0.1982,0 -0.0596,0.037 -0.097,0.1095 -0.097,0.1875 l 0,5.4747 0,5.4761 c 0,0.082 0.0375,0.15 0.097,0.1875 0.0624,0.037 0.13864,0.035 0.1982,0 l 8.34925,-5.4748 c 0.0597,-0.037 0.0956,-0.1095 0.0956,-0.1875 0,-0.076 -0.036,-0.1465 -0.0956,-0.1834 l -8.34925,-5.4746 z"
         class="st0"
         inkscape:connector-curvature="0" /></g><g
       transform="translate(60.396669,2.0595)"
       id="g4301"><circle
         style="opacity:0.8;fill:#9cc9fc;fill-opacity:1;fill-rule:evenodd;stroke:#7eabdf;stroke-width:5.29182768;stroke-linecap:butt;stroke-linejoin:miter;stroke-miterlimit:4;stroke-dasharray:none;stroke-opacity:1"
         id="path3347-9-0-4"
         cx="-20.396667"
         cy="76.940498"
         r="37.354088" /><path
         id="path4208-0-5"
         style="fill:#ffffff;fill-opacity:1"
         d="m -30.236027,58.825293 c -0.190719,-0.121599 -0.434175,-0.140799 -0.634239,0 -0.19072,0.1184 -0.3104,0.3504 -0.3104,0.6 l 0,17.519036 0,17.523516 c 0,0.2624 0.12,0.479999 0.3104,0.599999 0.19968,0.1184 0.443648,0.112 0.634239,0 L -3.5184332,77.548489 c 0.1910399,-0.1184 0.3059199,-0.3504 0.3059199,-0.6 0,-0.2432 -0.1152,-0.4688 -0.3059199,-0.58688 L -30.236027,58.842893 Z"
         class="st0"
         inkscape:connector-curvature="0" /></g></g><style
     id="style4608">.st0{fill:#4b4b4b}</style><style
     id="style4626">.st0{fill:#4b4b4b}</style><style
     id="style4898">.st0{fill:#4b4b4b}</style><style
     id="style4930">.st0{fill:#4b4b4b}</style><style
     id="style5128">.st0{fill:#4b4b4b}</style><style
     id="style5151">.st0{fill:#4b4b4b}</style><style
     id="style5178">.st0{fill:#4b4b4b}</style><style
     id="style5222">.st0{fill:#4b4b4b}</style><style
     id="style5271">.st0{fill:#4b4b4b}</style><style
     id="style5355">.st0{fill:#4b4b4b}</style><style
     id="style5415">.st0{fill:#4b4b4b}</style><style
     id="style5436">.st0{fill:#4b4b4b}</style><style
     id="style5472">.st0{fill:#4b4b4b}</style><style
     id="style5569">.st0{fill:#4b4b4b}</style><style
     id="style5590">.st0{fill:#4b4b4b}</style><style
     id="style5646">.st0{fill:#4b4b4b}</style><style
     id="style5719">.st0{fill:#4b4b4b}</style><style
     id="style7357">.st0{fill:#4b4b4b}</style><style
     id="style7387">.st0{fill:#4b4b4b}</style><style
     id="style4608-3">.st0{fill:#4b4b4b}</style><style
     id="style4626-7">.st0{fill:#4b4b4b}</style><style
     id="style4898-9">.st0{fill:#4b4b4b}</style><style
     id="style4930-7">.st0{fill:#4b4b4b}</style><style
     id="style5128-2">.st0{fill:#4b4b4b}</style><style
     id="style5151-9">.st0{fill:#4b4b4b}</style><style
     id="style5178-3">.st0{fill:#4b4b4b}</style><style
     id="style5222-3">.st0{fill:#4b4b4b}</style><style
     id="style5271-8">.st0{fill:#4b4b4b}</style><style
     id="style5355-5">.st0{fill:#4b4b4b}</style><style
     id="style5415-0">.st0{fill:#4b4b4b}</style><style
     id="style5436-7">.st0{fill:#4b4b4b}</style><style
     id="style5472-6">.st0{fill:#4b4b4b}</style><style
     id="style5569-0">.st0{fill:#4b4b4b}</style><style
     id="style5590-5">.st0{fill:#4b4b4b}</style><style
     id="style5646-2">.st0{fill:#4b4b4b}</style><style
     id="style5719-3">.st0{fill:#4b4b4b}</style><style
     id="style7357-7">.st0{fill:#4b4b4b}</style><style
     id="style7387-9">.st0{fill:#4b4b4b}</style><style
     id="style4608-7">.st0{fill:#4b4b4b}</style><style
     id="style4626-2">.st0{fill:#4b4b4b}</style><style
     id="style4898-8">.st0{fill:#4b4b4b}</style><style
     id="style4930-4">.st0{fill:#4b4b4b}</style><style
     id="style5128-0">.st0{fill:#4b4b4b}</style><style
     id="style5151-8">.st0{fill:#4b4b4b}</style><style
     id="style5178-1">.st0{fill:#4b4b4b}</style><style
     id="style5222-2">.st0{fill:#4b4b4b}</style><style
     id="style5271-84">.st0{fill:#4b4b4b}</style><style
     id="style5355-1">.st0{fill:#4b4b4b}</style><style
     id="style5415-8">.st0{fill:#4b4b4b}</style><style
     id="style5436-0">.st0{fill:#4b4b4b}</style><style
     id="style5472-8">.st0{fill:#4b4b4b}</style><style
     id="style5569-3">.st0{fill:#4b4b4b}</style><style
     id="style5590-8">.st0{fill:#4b4b4b}</style><style
     id="style5646-4">.st0{fill:#4b4b4b}</style><style
     id="style5719-7">.st0{fill:#4b4b4b}</style><style
     id="style7357-6">.st0{fill:#4b4b4b}</style><style
     id="style7387-6">.st0{fill:#4b4b4b}</style><g
     id="unmuted"
     transform="matrix(0.59999999,0,0,0.59999999,-116.80504,-564.65726)"
     inkscape:label="#unmuted"><path
       inkscape:connector-curvature="0"
       class="st0"
       d="m 296.34173,955.28392 0,5.82955 c 0,1.21072 0.98156,2.19246 2.19223,2.19246 l 4.08205,0 0,-10.21401 -4.08205,0 c -1.21067,0 -2.19223,0.98127 -2.19223,2.192 z"
       style="fill:#7eabdf;fill-opacity:1"
       id="path7361" /><path
       inkscape:connector-curvature="0"
       class="st0"
       d="m 312.76708,949.00102 c -0.22078,-0.13535 -0.49594,-0.14648 -0.72674,-0.0289 l -8.11119,4.1199 0,10.21401 8.11119,4.1199 c 0.23086,0.11695 0.50596,0.10582 0.72674,-0.0295 0.22055,-0.13536 0.35502,-0.37594 0.35502,-0.63434 l 0,-17.12625 c 6e-5,-0.25893 -0.13447,-0.49951 -0.35502,-0.63481 z"
       style="fill:#7eabdf;fill-opacity:1"
       id="path7363" /><path
       inkscape:connector-curvature="0"
       class="st0"
       d="m 320.27857,952.72993 c -0.29684,-0.32965 -0.8042,-0.35584 -1.13356,-0.059 -0.32918,0.29631 -0.35555,0.80361 -0.059,1.13326 1.12207,1.24523 1.6824,2.81683 1.68269,4.39453 -2.9e-4,1.57828 -0.56056,3.14977 -1.6824,4.39441 -0.29684,0.32918 -0.27041,0.83702 0.0587,1.13385 0.32912,0.29625 0.83672,0.27012 1.13326,-0.059 1.397,-1.54987 2.09619,-3.51235 2.09561,-5.46926 5.3e-4,-1.95645 -0.69867,-3.91951 -2.09531,-5.46879 z"
       style="fill:#7eabdf;fill-opacity:1"
       id="path7365" /><path
       inkscape:connector-curvature="0"
       class="st0"
       d="m 323.22923,950.07352 c -0.29654,-0.32912 -0.80391,-0.35531 -1.13332,-0.0585 -0.32941,0.29625 -0.35584,0.80361 -0.059,1.13326 1.80011,1.99758 2.69929,4.52086 2.69982,7.05035 -5.9e-4,2.52938 -0.89971,5.05266 -2.69982,7.05082 -0.29684,0.32918 -0.27036,0.83649 0.059,1.13332 0.32941,0.29684 0.83672,0.27071 1.13355,-0.0591 2.07452,-2.30273 3.11286,-5.21695 3.11227,-8.12502 5.9e-4,-2.90813 -1.03775,-5.8224 -3.1125,-8.1252 z"
       style="fill:#7eabdf;fill-opacity:1"
       id="path7367" /><path
       inkscape:connector-curvature="0"
       class="st0"
       d="m 316.19118,955.3295 c -0.32941,0.29631 -0.35584,0.8042 -0.059,1.13332 0.44496,0.49395 0.66574,1.11211 0.66627,1.7359 -5.3e-4,0.62367 -0.22131,1.24184 -0.66627,1.73637 -0.29684,0.32918 -0.27035,0.83648 0.059,1.13326 0.32942,0.29683 0.83672,0.27006 1.13326,-0.059 0.71842,-0.79693 1.07989,-1.80656 1.07901,-2.81062 8.8e-4,-1.00412 -0.36059,-2.01322 -1.07901,-2.81016 -0.29654,-0.32964 -0.80408,-0.35584 -1.13326,-0.0591 z"
       style="fill:#7eabdf;fill-opacity:1"
       id="path7369" /></g><g
     id="muted"
     transform="matrix(0.59999999,0,0,0.59999999,-107.17391,-575.09627)"><path
       inkscape:connector-curvature="0"
       class="st0"
       d="m 246.95652,972.602 0,5.99045 c 0,1.24336 1.00852,2.25217 2.25246,2.25217 l 4.19426,0 0,-10.49478 -4.19426,0 c -1.24394,0 -2.25246,1.00822 -2.25246,2.25216 z"
       style="fill:#7eabdf;fill-opacity:1"
       id="path7391" /><path
       inkscape:connector-curvature="0"
       class="st0"
       d="m 263.83345,966.14691 c -0.22687,-0.13957 -0.50953,-0.15047 -0.74672,-0.0303 l -8.33419,4.23317 0,10.49484 8.33419,4.23316 c 0.23719,0.12018 0.51985,0.10875 0.74672,-0.0303 0.22688,-0.13904 0.36481,-0.38566 0.36481,-0.65174 l 0,-17.59711 c 0,-0.26607 -0.13793,-0.51269 -0.36481,-0.65173 z"
       style="fill:#7eabdf;fill-opacity:1"
       id="path7393" /><path
       inkscape:connector-curvature="0"
       class="st0"
       d="m 273.50634,975.44872 3.18668,-3.18715 c 0.35133,-0.35132 0.35133,-0.92068 0,-1.27201 -0.35132,-0.35133 -0.92068,-0.35133 -1.27201,0 l -3.18668,3.18662 -3.18715,-3.18662 c -0.35138,-0.35133 -0.92068,-0.35133 -1.27201,0 -0.35138,0.35133 -0.35138,0.92069 0,1.27201 l 3.18656,3.18715 -3.18656,3.18662 c -0.35138,0.35133 -0.35138,0.92069 0,1.27201 0.35133,0.35133 0.92063,0.35133 1.27201,0 l 3.18715,-3.18667 3.18668,3.18667 c 0.35133,0.35133 0.92069,0.35133 1.27201,0 0.35133,-0.35132 0.35133,-0.92068 0,-1.27201 l -3.18668,-3.18662 z"
       style="fill:#7eabdf;fill-opacity:1"
       id="path7395" /></g></svg>