<?xml version="1.0" encoding="UTF-8" standalone="no"?>
<svg
   xmlns:dc="http://purl.org/dc/elements/1.1/"
   xmlns:cc="http://creativecommons.org/ns#"
   xmlns:rdf="http://www.w3.org/1999/02/22-rdf-syntax-ns#"
   xmlns:svg="http://www.w3.org/2000/svg"
   xmlns="http://www.w3.org/2000/svg"
   xmlns:xlink="http://www.w3.org/1999/xlink"
   xmlns:sodipodi="http://sodipodi.sourceforge.net/DTD/sodipodi-0.dtd"
   xmlns:inkscape="http://www.inkscape.org/namespaces/inkscape"
   width="640"
   height="320"
   viewBox="0 0 169.3344 84.666667"
   version="1.1"
   id="svg8"
   sodipodi:docname="social-preview.svg"
   inkscape:version="0.92.4 (5da689c313, 2019-01-14)"
   inkscape:export-filename="D:\Users\Administrator\Desktop\social-preview.png"
   inkscape:export-xdpi="96"
   inkscape:export-ydpi="96">
  <metadata
     id="metadata23">
    <rdf:RDF>
      <cc:Work
         rdf:about="">
        <dc:format>image/svg+xml</dc:format>
        <dc:type
           rdf:resource="http://purl.org/dc/dcmitype/StillImage" />
        <dc:title></dc:title>
      </cc:Work>
    </rdf:RDF>
  </metadata>
  <defs
     id="defs21" />
  <sodipodi:namedview
     pagecolor="#ffffff"
     bordercolor="#666666"
     borderopacity="1"
     objecttolerance="10"
     gridtolerance="10"
     guidetolerance="10"
     inkscape:pageopacity="1"
     inkscape:pageshadow="2"
     inkscape:window-width="1824"
     inkscape:window-height="1003"
     id="namedview19"
     showgrid="false"
     inkscape:zoom="0.94398755"
     inkscape:cx="131.80701"
     inkscape:cy="185.9442"
     inkscape:window-x="-8"
     inkscape:window-y="-8"
     inkscape:window-maximized="1"
     inkscape:current-layer="svg8"
     fit-margin-top="0"
     fit-margin-left="0"
     fit-margin-right="0"
     fit-margin-bottom="0" />
  <g
     id="layer1"
     transform="matrix(1.9238894,0,0,1.9238894,-115.21866,-217.91896)">
    <g
       id="g5245"
       transform="matrix(0.98997,0,0,0.98997,-30.111,-46.35)">
      <path
         id="path5639-6-2"
         d="m 154.118,174.455 c -0.055,0.176 -0.28,0.636 -0.347,0.794 a 3.85,3.85 0 0 1 -0.226,0.45 l 0.795,0.398 c 0.105,-0.196 0.208,-0.412 0.303,-0.637 0.19,-0.45 0.349,-0.936 0.439,-1.371 -0.3,0.03 -0.787,0.259 -0.964,0.366 z m -2.781,1.446 a 4.55,4.55 0 0 1 -0.332,-0.64 5.695,5.695 0 0 1 -0.324,-1.052 c -0.275,-1.33 -0.019,-2.896 0.85,-4.246 l 0.471,0.709 a 0.45,0.45 0 0 0 0.75,0 l 0.47,-0.707 c 0.434,0.675 0.716,1.404 0.854,2.13 0.111,-0.075 0.76,-0.282 0.89,-0.301 -0.051,-0.428 -0.253,-1.194 -0.475,-1.664 a 6.007,6.007 0 0 0 -0.874,-1.349 0.45,0.45 0 0 0 -0.715,0.043 l -0.525,0.787 -0.525,-0.787 a 0.45,0.45 0 0 0 -0.383,-0.2 0.45,0.45 0 0 0 -0.332,0.157 c -1.457,1.7 -1.696,3.87 -1.336,5.612 0.09,0.435 0.216,0.845 0.374,1.219 0.08,0.187 0.166,0.365 0.26,0.532 0.046,0.084 0.041,0.077 0.092,0.155 z"
         style="color:#000000;font-style:normal;font-variant:normal;font-weight:400;font-stretch:normal;font-size:medium;line-height:normal;font-family:sans-serif;font-variant-ligatures:normal;font-variant-position:normal;font-variant-caps:normal;font-variant-numeric:normal;font-variant-alternates:normal;font-feature-settings:normal;text-indent:0;text-align:start;text-decoration:none;text-decoration-line:none;text-decoration-style:solid;text-decoration-color:#000000;letter-spacing:normal;word-spacing:normal;text-transform:none;writing-mode:lr-tb;direction:ltr;text-orientation:mixed;dominant-baseline:auto;baseline-shift:baseline;text-anchor:start;white-space:normal;shape-padding:0;clip-rule:nonzero;display:inline;overflow:visible;visibility:visible;opacity:1;isolation:auto;mix-blend-mode:normal;color-interpolation:sRGB;color-interpolation-filters:linearRGB;solid-color:#000000;solid-opacity:1;vector-effect:none;fill:#ff7bd9;fill-opacity:1;fill-rule:nonzero;stroke:none;stroke-width:0.89899999;stroke-linecap:round;stroke-linejoin:round;stroke-miterlimit:4;stroke-dasharray:none;stroke-dashoffset:0;stroke-opacity:1;color-rendering:auto;image-rendering:auto;shape-rendering:auto;text-rendering:auto"
         font-style="normal"
         font-variant="normal"
         font-weight="400"
         font-stretch="normal"
         font-size="medium"
         text-decoration="none"
         letter-spacing="normal"
         word-spacing="normal"
         direction="ltr"
         dominant-baseline="auto"
         baseline-shift="baseline"
         display="inline"
         overflow="visible"
         visibility="visible"
         stroke-miterlimit="4"
         inkscape:connector-curvature="0" />
      <use
         height="100%"
         width="100%"
         transform="rotate(72,152.377,176.24)"
         id="use5656-6"
         xlink:href="#path5639-6-2"
         y="0"
         x="0" />
      <use
         height="100%"
         width="100%"
         transform="rotate(72,152.377,176.24)"
         id="use5658-7"
         xlink:href="#use5656-6"
         y="0"
         x="0" />
      <use
         height="100%"
         width="100%"
         transform="rotate(72,152.377,176.24)"
         id="use5660-9"
         xlink:href="#use5658-7"
         y="0"
         x="0" />
      <use
         height="100%"
         width="100%"
         transform="rotate(72,152.377,176.24)"
         id="use5662-0"
         xlink:href="#use5660-9"
         y="0"
         x="0" />
    </g>
    <g
       id="g922"
       transform="translate(0.542,0.015)"
       font-style="normal"
       font-weight="400"
       letter-spacing="0"
       word-spacing="0"
       style="font-style:normal;font-weight:400;letter-spacing:0;word-spacing:0;fill-opacity:1;stroke:none">
      <path
         d="m 89.652,132.156 q -0.424,-0.06 -0.792,-0.194 -0.367,-0.133 -0.555,-0.475 -0.05,-0.149 -0.02,-0.312 0.035,-0.179 0.085,-0.357 l 0.305,-0.268 h 0.179 q 0.224,0.446 0.62,0.625 0.401,0.163 0.966,0.163 l 0.599,-0.297 q 0.31,-0.283 0.55,-0.654 0.26,-0.387 0.4,-0.773 0.027,-0.238 0.028,-0.446 0.022,-0.223 -0.156,-0.387 -0.38,-0.222 -0.826,-0.386 -0.425,-0.178 -0.782,-0.505 -0.14,-0.268 -0.115,-0.625 0.046,-0.371 0.268,-0.817 0.081,-0.223 0.264,-0.357 0.182,-0.134 0.318,-0.342 l 1.18,-0.178 q 0.438,0.06 0.85,0.193 0.413,0.134 0.749,0.312 l 0.02,0.149 h 0.075 l -0.042,0.401 -0.73,0.208 -0.087,0.075 h -0.089 l 0.004,-0.134 H 92.68 l -0.035,-0.149 -0.708,-0.178 q -0.213,0.015 -0.443,0.074 -0.21,0.045 -0.397,0.193 l -0.234,0.357 q 0.034,0.193 0.169,0.312 0.15,0.12 0.27,0.238 0.455,0.178 0.925,0.357 0.47,0.178 0.756,0.58 0.024,0.178 0.102,0.371 0.078,0.193 -0.014,0.446 -0.347,0.505 -0.646,1.04 -0.284,0.536 -0.669,0.982 l -0.204,0.03 -0.187,0.267 -0.397,0.193 -0.062,0.09 q -0.326,-0.045 -0.622,0.074 -0.29,0.104 -0.632,0.104 z"
         style="font-variant:normal;font-stretch:normal;font-size:12.68799973px;line-height:1.25;font-family:AoyagiKouzanFontT;-inkscape-font-specification:'AoyagiKouzanFontT, Normal';font-variant-ligatures:normal;font-variant-caps:normal;font-variant-numeric:normal;font-feature-settings:normal;text-align:start;writing-mode:lr-tb;text-anchor:start;fill:#000000;stroke-width:0.35699999"
         id="path889"
         font-variant="normal"
         font-stretch="normal"
         font-size="12.688"
         inkscape:connector-curvature="0" />
      <path
         d="m 94.735,132.111 q -0.266,-0.044 -0.44,-0.178 -0.175,-0.134 -0.368,-0.298 -0.216,-0.877 0.078,-1.887 0.299,-1.026 0.703,-2.096 0.357,-0.49 0.723,-0.966 0.367,-0.476 0.886,-0.922 l 0.298,-0.208 q 0.342,0 0.629,-0.134 0.301,-0.134 0.636,-0.074 l 0.497,0.267 -0.054,0.149 q 0.264,-0.03 0.408,0.104 0.15,0.119 0.27,0.282 0.252,0.49 0.229,1.085 -0.002,0.58 -0.345,1.234 -0.479,0.743 -0.89,1.546 -0.411,0.803 -1.15,1.442 -0.51,0.342 -1.03,0.505 -0.515,0.149 -1.08,0.149 z m 1.318,-0.966 q 0.827,-0.64 1.37,-1.397 0.544,-0.758 0.912,-1.606 v -0.163 l 0.135,-0.208 h -0.134 l -0.117,-1.026 -0.81,-0.104 -0.209,0.045 -0.147,-0.045 -0.195,0.045 -0.132,-0.045 q -0.62,0.476 -1.073,1.07 -0.45,0.58 -0.703,1.279 -0.148,0.61 -0.28,1.174 -0.13,0.565 0.008,1.04 0.185,0.104 0.356,0.164 0.172,0.06 0.461,0 z"
         style="font-variant:normal;font-stretch:normal;font-size:12.68799973px;line-height:1.25;font-family:AoyagiKouzanFontT;-inkscape-font-specification:'AoyagiKouzanFontT, Normal';font-variant-ligatures:normal;font-variant-caps:normal;font-variant-numeric:normal;font-feature-settings:normal;text-align:start;writing-mode:lr-tb;text-anchor:start;fill:#000000;stroke-width:0.35699999"
         id="path891"
         font-variant="normal"
         font-stretch="normal"
         font-size="12.688"
         inkscape:connector-curvature="0" />
      <path
         d="m 102.012,132.215 -0.592,-0.416 q -0.16,-1.234 0.392,-2.75 0.557,-1.531 0.85,-2.988 l -0.133,-0.044 -0.276,0.104 -0.038,0.104 -1.146,0.698 q -0.62,1.13 -1.166,2.304 -0.546,1.175 -1.033,2.349 l -0.06,0.327 -0.306,0.149 -0.16,-0.09 0.042,-0.118 -0.132,-0.045 0.045,-0.654 h -0.09 l 0.136,-0.372 0.388,-0.698 0.015,-0.164 q 0.383,-0.684 0.756,-1.382 0.373,-0.699 0.614,-1.442 l 0.262,-1.293 0.329,-0.045 0.348,0.268 -0.157,0.43 h 0.134 l 0.663,-0.594 q 0.423,-0.223 0.843,-0.357 0.42,-0.133 0.866,-0.133 l 0.188,0.178 q 0.14,0.431 0.03,0.937 -0.109,0.505 -0.38,1.085 l -0.321,0.802 -0.225,0.699 -0.127,0.267 -0.068,0.268 -0.11,0.223 q -0.047,0.372 -0.189,0.803 -0.121,0.416 -0.002,0.743 l 0.661,0.431 -0.114,0.312 z"
         style="font-variant:normal;font-stretch:normal;font-size:12.68799973px;line-height:1.25;font-family:AoyagiKouzanFontT;-inkscape-font-specification:'AoyagiKouzanFontT, Normal';font-variant-ligatures:normal;font-variant-caps:normal;font-variant-numeric:normal;font-feature-settings:normal;text-align:start;writing-mode:lr-tb;text-anchor:start;fill:#000000;stroke-width:0.35699999"
         id="path893"
         font-variant="normal"
         font-stretch="normal"
         font-size="12.688"
         inkscape:connector-curvature="0" />
      <path
         d="m 104.216,132.17 q -0.205,-0.252 -0.275,-0.55 -0.056,-0.297 -0.005,-0.639 l 0.566,-1.189 q 0.298,-0.98 0.506,-1.962 0.23,-0.996 0.267,-1.917 l 0.438,-0.223 0.038,-0.104 h 0.06 l 0.021,-0.06 0.735,-0.06 q 0.142,0.224 0.05,0.476 -0.092,0.253 -0.145,0.52 l -0.32,0.759 -0.49,1.754 -0.38,0.758 0.083,0.06 -0.817,2.244 z m 2.628,-7.67 -0.471,-0.624 v -0.371 q -0.094,-0.149 -0.102,-0.372 -0.008,-0.223 0.074,-0.446 l 0.34,-0.446 h 0.431 l 0.676,0.104 q 0.142,0.387 -0.102,0.892 -0.223,0.49 -0.385,0.936 l -0.216,0.268 z"
         style="font-variant:normal;font-stretch:normal;font-size:12.68799973px;line-height:1.25;font-family:AoyagiKouzanFontT;-inkscape-font-specification:'AoyagiKouzanFontT, Normal';font-variant-ligatures:normal;font-variant-caps:normal;font-variant-numeric:normal;font-feature-settings:normal;text-align:start;writing-mode:lr-tb;text-anchor:start;fill:#000000;stroke-width:0.35699999"
         id="path895"
         font-variant="normal"
         font-stretch="normal"
         font-size="12.688"
         inkscape:connector-curvature="0" />
      <path
         d="m 107.96,132.185 -0.803,-0.327 -0.005,-0.148 -0.108,-0.03 q -0.364,-0.714 -0.209,-1.59 0.156,-0.878 0.543,-1.859 0.297,-0.654 0.722,-1.248 0.424,-0.595 1.107,-1.04 0.488,-0.239 0.977,-0.357 0.49,-0.12 0.973,-0.06 l 0.378,0.268 0.04,0.832 0.067,0.06 0.024,0.505 -0.35,0.386 -0.438,0.104 0.019,-0.133 -0.394,-0.104 0.136,-0.372 q 0.065,-0.178 -0.052,-0.268 -0.12,-0.118 -0.258,-0.148 -0.137,-0.03 -0.346,-0.03 l -1.037,0.401 -0.038,0.104 h -0.09 q -0.419,0.417 -0.655,0.863 -0.237,0.445 -0.42,0.95 -0.163,0.447 -0.251,0.893 -0.083,0.43 -0.006,0.832 h 0.104 l -0.032,0.09 0.171,0.059 -0.032,0.089 0.952,0.119 q 0.565,-0.164 1.102,-0.535 0.551,-0.372 1.107,-0.714 l 0.225,-0.253 h 0.104 l -0.021,0.06 0.055,0.134 -0.012,0.401 q -0.323,0.52 -0.712,0.936 -0.39,0.417 -0.895,0.744 -0.372,0.163 -0.787,0.282 -0.394,0.104 -0.766,0.104 h -0.045 z"
         style="font-variant:normal;font-stretch:normal;font-size:12.68799973px;line-height:1.25;font-family:AoyagiKouzanFontT;-inkscape-font-specification:'AoyagiKouzanFontT, Normal';font-variant-ligatures:normal;font-variant-caps:normal;font-variant-numeric:normal;font-feature-settings:normal;text-align:start;writing-mode:lr-tb;text-anchor:start;fill:#000000;stroke-width:0.35699999"
         id="path897"
         font-variant="normal"
         font-stretch="normal"
         font-size="12.688"
         inkscape:connector-curvature="0" />
      <path
         d="m 82.949,133.737 -0.01,-0.179 h -0.134 q -0.152,-0.193 -0.109,-0.475 0.038,-0.268 0.19,-0.565 l 0.454,-0.877 1.017,-2.795 q 0.055,-0.52 0.231,-1.085 0.176,-0.565 -0.193,-0.98 l 0.172,-0.268 0.14,-0.67 0.201,-0.267 1.103,-0.253 0.174,0.134 -0.043,0.12 h 0.386 l 1.426,-0.12 q 0.416,0.164 0.798,0.298 0.398,0.133 0.612,0.564 0.108,0.194 0.19,0.461 0.08,0.268 -0.143,0.595 l -1.041,1.025 -0.2,0.06 -0.043,0.119 q -0.806,0.416 -1.653,0.743 -0.827,0.312 -1.615,0.312 l -1.524,3.657 -0.009,0.267 q -0.132,0.12 -0.233,0.194 -0.087,0.074 -0.144,-0.015 z m 4.142,-5.337 0.16,-0.03 0.037,-0.103 0.73,-0.535 0.309,-0.684 -0.273,-0.476 0.038,-0.104 q -0.23,-0.104 -0.56,-0.178 -0.31,-0.09 -0.667,-0.045 l -0.648,0.268 q -0.38,0.267 -0.515,0.639 -0.135,0.371 -0.299,0.698 l -0.03,0.209 -0.235,0.52 1.176,0.119 z"
         style="font-variant:normal;font-stretch:normal;font-size:12.68799973px;line-height:1.25;font-family:AoyagiKouzanFontT;-inkscape-font-specification:'AoyagiKouzanFontT, Normal';font-variant-ligatures:normal;font-variant-caps:normal;font-variant-numeric:normal;font-feature-settings:normal;text-align:start;writing-mode:lr-tb;text-anchor:start;fill:#ff7bd9;stroke-width:0.35699999"
         id="path886"
         font-variant="normal"
         font-stretch="normal"
         font-size="12.688"
         inkscape:connector-curvature="0" />
      <g
         id="text909"
         style="font-size:13.21000004px;line-height:1.25;font-family:sans-serif;fill:#ff7bd9;stroke-width:0.33000001"
         transform="matrix(1.19967,0,-0.43664,1.19967,-86.956,8.32)"
         aria-label="J"
         font-size="13.21">
        <path
           id="path911"
           style="font-style:normal;font-variant:normal;font-weight:400;font-stretch:normal;font-size:13.21000004px;font-family:AoyagiKouzanFontT;-inkscape-font-specification:'AoyagiKouzanFontT, Normal';font-variant-ligatures:normal;font-variant-caps:normal;font-variant-numeric:normal;font-feature-settings:normal;text-align:start;writing-mode:lr-tb;text-anchor:start;fill:#ff7bd9;fill-opacity:1;stroke-width:0.33000001"
           d="m 177.072,104.193 q -0.297,-0.168 -0.542,-0.387 -0.245,-0.22 -0.49,-0.593 l -0.052,-0.13 -0.142,-0.128 v -0.194 l 0.142,-0.593 0.103,-0.155 v -0.103 h 0.104 q 0.245,0.31 0.477,0.58 0.245,0.271 0.542,0.271 l 0.103,-0.116 0.142,-0.593 V 99.2 q -0.052,-0.942 -0.09,-1.922 -0.026,-0.98 -0.13,-1.87 l 0.04,-0.298 -0.04,-0.103 h -0.116 l -0.683,0.194 q -0.04,-0.052 -0.065,-0.207 -0.026,-0.154 -0.026,-0.296 l -0.116,-0.18 V 94.22 h 0.065 v -0.103 h 0.129 v -0.051 q 0.503,-0.31 1.058,-0.439 0.554,-0.129 1.16,-0.052 0.13,0.052 0.233,0.116 0.103,0.065 0.232,0.155 v 0.323 q 0,0.206 -0.065,0.374 -0.064,0.155 -0.154,0.297 l -0.374,0.167 -0.078,-0.064 -0.129,0.064 -0.206,-0.064 -0.026,0.503 0.026,1.264 -0.065,2.025 0.039,0.181 -0.039,0.077 v 2.851 q 0,0.58 -0.116,1.032 -0.103,0.452 -0.297,0.878 -0.129,0.09 -0.245,0.258 -0.103,0.18 -0.258,0.18 l -0.013,-0.064 z"
           font-style="normal"
           font-variant="normal"
           font-weight="400"
           font-stretch="normal"
           font-size="13.21"
           inkscape:connector-curvature="0" />
      </g>
    </g>
  </g>
  <text
     xml:space="preserve"
     style="font-style:normal;font-variant:normal;font-weight:normal;font-stretch:normal;font-size:5.64448023px;line-height:1.25;font-family:Calibri;-inkscape-font-specification:'Calibri, Normal';font-variant-ligatures:normal;font-variant-caps:normal;font-variant-numeric:normal;font-feature-settings:normal;text-align:start;letter-spacing:0px;word-spacing:0px;writing-mode:lr-tb;text-anchor:start;fill:#000000;fill-opacity:1;stroke:none;stroke-width:0.26458499"
     x="28.303696"
     y="58.703915"
     id="text33"><tspan
       sodipodi:role="line"
       x="28.303696"
       y="58.703915"
       style="font-style:normal;font-variant:normal;font-weight:normal;font-stretch:normal;font-size:5.64448023px;font-family:Calibri;-inkscape-font-specification:'Calibri, Normal';font-variant-ligatures:normal;font-variant-caps:normal;font-variant-numeric:normal;font-feature-settings:normal;text-align:start;writing-mode:lr-tb;text-anchor:start;stroke-width:0.26458499"
       id="tspan37">It is almost the only free server that can correctly</tspan><tspan
       sodipodi:role="line"
       x="28.303696"
       y="65.759514"
       style="font-style:normal;font-variant:normal;font-weight:normal;font-stretch:normal;font-size:5.64448023px;font-family:Calibri;-inkscape-font-specification:'Calibri, Normal';font-variant-ligatures:normal;font-variant-caps:normal;font-variant-numeric:normal;font-feature-settings:normal;text-align:start;writing-mode:lr-tb;text-anchor:start;stroke-width:0.26458499"
       id="tspan66">index Japanese and perform voice search.</tspan></text>
  <text
     xml:space="preserve"
     style="font-style:normal;font-variant:normal;font-weight:normal;font-stretch:normal;font-size:8.46671963px;line-height:1.25;font-family:Calibri;-inkscape-font-specification:'Calibri, Normal';font-variant-ligatures:normal;font-variant-caps:normal;font-variant-numeric:normal;font-feature-settings:normal;text-align:start;letter-spacing:0px;word-spacing:0px;writing-mode:lr-tb;text-anchor:start;fill:#000000;fill-opacity:1;stroke:none;stroke-width:0.26458499"
     x="21.669098"
     y="50.059326"
     id="text33-9"><tspan
       sodipodi:role="line"
       x="21.669098"
       y="50.059326"
       style="font-style:normal;font-variant:normal;font-weight:normal;font-stretch:normal;font-size:8.46671963px;font-family:Calibri;-inkscape-font-specification:'Calibri, Normal';font-variant-ligatures:normal;font-variant-caps:normal;font-variant-numeric:normal;font-feature-settings:normal;text-align:start;writing-mode:lr-tb;text-anchor:start;stroke-width:0.26458499"
       id="tspan37-2">Secure and easy to use media server.</tspan></text>
</svg>
