<svg xmlns="http://www.w3.org/2000/svg" width="18" height="18">
  <defs/>
  <path fill="#ff7bd9" stroke="#ff7bd9" stroke-linecap="round" stroke-linejoin="round" stroke-miterlimit="1" stroke-width="1.784" d="M4.332 14.866a1.164 2.486 30 011.147-2.476 1.164 2.486 30 011.697-.771 1.164 2.486 30 01.144 1.888 1.164 2.486 30 01-1.587 2.209l.19-1.95zM9.727 2.318a1.164 2.486 0 01.244 2.717 1.164 2.486 0 01-1.084 1.518 1.164 2.486 0 01-1.07-1.563 1.164 2.486 0 01.27-2.706l.81 1.783zm6.156 6.252a2.486 1.164-15 01-2.561.939 2.486 1.164-15 01-1.746-.654 2.486 1.164-15 011.233-1.438 2.486 1.164-15 012.684-.44L13.98 8.223zM2.577 6.97a2.486 1.164 15 012.687.468 2.486 1.164 15 011.185 1.439 2.486 1.164 15 01-1.787.628 2.486 1.164 15 01-2.544-.96l1.932-.323zm9.454 8.746a2.486 1.164 60 01-1.57-2.232 2.486 1.164 60 01.18-1.855 2.486 1.164 60 011.708.819 2.486 1.164 60 011.12 2.479l-1.595-1.14z"/>
</svg>
