<svg xmlns="http://www.w3.org/2000/svg" xmlns:xlink="http://www.w3.org/1999/xlink" width="200" height="60" viewBox="0 0 52.917 15.875" version="1.1" id="svg8"><g id="layer1" transform="translate(-78.032 -119.596)"><g id="g5245" transform="matrix(.98997 0 0 .98997 -30.111 -46.35)"><path id="path5639-6-2" d="M154.118 174.455c-.055.176-.28.636-.347.794a3.85 3.85 0 01-.226.45l.795.398c.105-.196.208-.412.303-.637.19-.45.349-.936.439-1.371-.3.03-.787.259-.964.366zm-2.781 1.446a4.55 4.55 0 01-.332-.64 5.695 5.695 0 01-.324-1.052c-.275-1.33-.019-2.896.85-4.246l.471.709a.45.45 0 00.75 0l.47-.707c.434.675.716 1.404.854 2.13.111-.075.76-.282.89-.301-.051-.428-.253-1.194-.475-1.664a6.007 6.007 0 00-.874-1.349.45.45 0 00-.715.043l-.525.787-.525-.787a.45.45 0 00-.383-.2.45.45 0 00-.332.157c-1.457 1.7-1.696 3.87-1.336 5.612.09.435.216.845.374 1.219.08.187.166.365.26.532.046.084.041.077.092.155z" style="line-height:normal;font-variant-ligatures:normal;font-variant-position:normal;font-variant-caps:normal;font-variant-numeric:normal;font-variant-alternates:normal;font-feature-settings:normal;text-indent:0;text-align:start;text-decoration-line:none;text-decoration-style:solid;text-decoration-color:#000;text-transform:none;text-orientation:mixed;white-space:normal;shape-padding:0;isolation:auto;mix-blend-mode:normal;solid-color:#000;solid-opacity:1" color="#000" font-style="normal" font-variant="normal" font-weight="400" font-stretch="normal" font-size="medium" font-family="sans-serif" text-decoration="none" letter-spacing="normal" word-spacing="normal" writing-mode="lr-tb" direction="ltr" dominant-baseline="auto" baseline-shift="baseline" text-anchor="start" clip-rule="nonzero" display="inline" overflow="visible" visibility="visible" opacity="1" color-interpolation="sRGB" color-interpolation-filters="linearRGB" vector-effect="none" fill="#ff7bd9" fill-opacity="1" fill-rule="nonzero" stroke="none" stroke-width=".899" stroke-linecap="round" stroke-linejoin="round" stroke-miterlimit="4" stroke-dasharray="none" stroke-dashoffset="0" stroke-opacity="1" color-rendering="auto" image-rendering="auto" shape-rendering="auto" text-rendering="auto"/><use height="100%" width="100%" transform="rotate(72 152.377 176.24)" id="use5656-6" xlink:href="#path5639-6-2" y="0" x="0"/><use height="100%" width="100%" transform="rotate(72 152.377 176.24)" id="use5658-7" xlink:href="#use5656-6" y="0" x="0"/><use height="100%" width="100%" transform="rotate(72 152.377 176.24)" id="use5660-9" xlink:href="#use5658-7" y="0" x="0"/><use height="100%" width="100%" transform="rotate(72 152.377 176.24)" id="use5662-0" xlink:href="#use5660-9" y="0" x="0"/></g><g id="g922" transform="translate(.542 .015)" font-style="normal" font-weight="400" letter-spacing="0" word-spacing="0" fill-opacity="1" stroke="none"><path d="M89.652 132.156q-.424-.06-.792-.194-.367-.133-.555-.475-.05-.149-.02-.312.035-.179.085-.357l.305-.268h.179q.224.446.62.625.401.163.966.163l.599-.297q.31-.283.55-.654.26-.387.4-.773.027-.238.028-.446.022-.223-.156-.387-.38-.222-.826-.386-.425-.178-.782-.505-.14-.268-.115-.625.046-.371.268-.817.081-.223.264-.357.182-.134.318-.342l1.18-.178q.438.06.85.193.413.134.749.312l.02.149h.075l-.042.401-.73.208-.087.075h-.089l.004-.134h-.238l-.035-.149-.708-.178q-.213.015-.443.074-.21.045-.397.193l-.234.357q.034.193.169.312.15.12.27.238.455.178.925.357.47.178.756.58.024.178.102.371.078.193-.014.446-.347.505-.646 1.04-.284.536-.669.982l-.204.03-.187.267-.397.193-.062.09q-.326-.045-.622.074-.29.104-.632.104z" style="line-height:1.25;-inkscape-font-specification:'AoyagiKouzanFontT, Normal';font-variant-ligatures:normal;font-variant-caps:normal;font-variant-numeric:normal;font-feature-settings:normal;text-align:start" id="path889" font-variant="normal" font-stretch="normal" font-size="12.688" font-family="AoyagiKouzanFontT" writing-mode="lr-tb" text-anchor="start" fill="#000" stroke-width=".357"/><path d="M94.735 132.111q-.266-.044-.44-.178-.175-.134-.368-.298-.216-.877.078-1.887.299-1.026.703-2.096.357-.49.723-.966.367-.476.886-.922l.298-.208q.342 0 .629-.134.301-.134.636-.074l.497.267-.054.149q.264-.03.408.104.15.119.27.282.252.49.229 1.085-.002.58-.345 1.234-.479.743-.89 1.546-.411.803-1.15 1.442-.51.342-1.03.505-.515.149-1.08.149zm1.318-.966q.827-.64 1.37-1.397.544-.758.912-1.606v-.163l.135-.208h-.134l-.117-1.026-.81-.104-.209.045-.147-.045-.195.045-.132-.045q-.62.476-1.073 1.07-.45.58-.703 1.279-.148.61-.28 1.174-.13.565.008 1.04.185.104.356.164.172.06.461 0z" style="line-height:1.25;-inkscape-font-specification:'AoyagiKouzanFontT, Normal';font-variant-ligatures:normal;font-variant-caps:normal;font-variant-numeric:normal;font-feature-settings:normal;text-align:start" id="path891" font-variant="normal" font-stretch="normal" font-size="12.688" font-family="AoyagiKouzanFontT" writing-mode="lr-tb" text-anchor="start" fill="#000" stroke-width=".357"/><path d="M102.012 132.215l-.592-.416q-.16-1.234.392-2.75.557-1.531.85-2.988l-.133-.044-.276.104-.038.104-1.146.698q-.62 1.13-1.166 2.304-.546 1.175-1.033 2.349l-.06.327-.306.149-.16-.09.042-.118-.132-.045.045-.654h-.09l.136-.372.388-.698.015-.164q.383-.684.756-1.382.373-.699.614-1.442l.262-1.293.329-.045.348.268-.157.43h.134l.663-.594q.423-.223.843-.357.42-.133.866-.133l.188.178q.14.431.03.937-.109.505-.38 1.085l-.321.802-.225.699-.127.267-.068.268-.11.223q-.047.372-.189.803-.121.416-.002.743l.661.431-.114.312z" style="line-height:1.25;-inkscape-font-specification:'AoyagiKouzanFontT, Normal';font-variant-ligatures:normal;font-variant-caps:normal;font-variant-numeric:normal;font-feature-settings:normal;text-align:start" id="path893" font-variant="normal" font-stretch="normal" font-size="12.688" font-family="AoyagiKouzanFontT" writing-mode="lr-tb" text-anchor="start" fill="#000" stroke-width=".357"/><path d="M104.216 132.17q-.205-.252-.275-.55-.056-.297-.005-.639l.566-1.189q.298-.98.506-1.962.23-.996.267-1.917l.438-.223.038-.104h.06l.021-.06.735-.06q.142.224.05.476-.092.253-.145.52l-.32.759-.49 1.754-.38.758.083.06-.817 2.244zm2.628-7.67l-.471-.624v-.371q-.094-.149-.102-.372-.008-.223.074-.446l.34-.446h.431l.676.104q.142.387-.102.892-.223.49-.385.936l-.216.268z" style="line-height:1.25;-inkscape-font-specification:'AoyagiKouzanFontT, Normal';font-variant-ligatures:normal;font-variant-caps:normal;font-variant-numeric:normal;font-feature-settings:normal;text-align:start" id="path895" font-variant="normal" font-stretch="normal" font-size="12.688" font-family="AoyagiKouzanFontT" writing-mode="lr-tb" text-anchor="start" fill="#000" stroke-width=".357"/><path d="M107.96 132.185l-.803-.327-.005-.148-.108-.03q-.364-.714-.209-1.59.156-.878.543-1.859.297-.654.722-1.248.424-.595 1.107-1.04.488-.239.977-.357.49-.12.973-.06l.378.268.04.832.067.06.024.505-.35.386-.438.104.019-.133-.394-.104.136-.372q.065-.178-.052-.268-.12-.118-.258-.148-.137-.03-.346-.03l-1.037.401-.038.104h-.09q-.419.417-.655.863-.237.445-.42.95-.163.447-.251.893-.083.43-.006.832h.104l-.032.09.171.059-.032.089.952.119q.565-.164 1.102-.535.551-.372 1.107-.714l.225-.253h.104l-.021.06.055.134-.012.401q-.323.52-.712.936-.39.417-.895.744-.372.163-.787.282-.394.104-.766.104h-.045z" style="line-height:1.25;-inkscape-font-specification:'AoyagiKouzanFontT, Normal';font-variant-ligatures:normal;font-variant-caps:normal;font-variant-numeric:normal;font-feature-settings:normal;text-align:start" id="path897" font-variant="normal" font-stretch="normal" font-size="12.688" font-family="AoyagiKouzanFontT" writing-mode="lr-tb" text-anchor="start" fill="#000" stroke-width=".357"/><path d="M82.949 133.737l-.01-.179h-.134q-.152-.193-.109-.475.038-.268.19-.565l.454-.877 1.017-2.795q.055-.52.231-1.085.176-.565-.193-.98l.172-.268.14-.67.201-.267 1.103-.253.174.134-.043.12h.386l1.426-.12q.416.164.798.298.398.133.612.564.108.194.19.461.08.268-.143.595L88.37 128.4l-.2.06-.043.119q-.806.416-1.653.743-.827.312-1.615.312l-1.524 3.657-.009.267q-.132.12-.233.194-.087.074-.144-.015zm4.142-5.337l.16-.03.037-.103.73-.535.309-.684-.273-.476.038-.104q-.23-.104-.56-.178-.31-.09-.667-.045l-.648.268q-.38.267-.515.639-.135.371-.299.698l-.03.209-.235.52 1.176.119z" style="line-height:1.25;-inkscape-font-specification:'AoyagiKouzanFontT, Normal';font-variant-ligatures:normal;font-variant-caps:normal;font-variant-numeric:normal;font-feature-settings:normal;text-align:start" id="path886" font-variant="normal" font-stretch="normal" font-size="12.688" font-family="AoyagiKouzanFontT" writing-mode="lr-tb" text-anchor="start" fill="#ff7bd9" stroke-width=".357"/><g id="text909" style="line-height:1.25" transform="matrix(1.19967 0 -.43664 1.19967 -86.956 8.32)" aria-label="J" font-size="13.21" font-family="sans-serif" fill="#ff7bd9" stroke-width=".33"><path id="path911" style="-inkscape-font-specification:'AoyagiKouzanFontT, Normal';font-variant-ligatures:normal;font-variant-caps:normal;font-variant-numeric:normal;font-feature-settings:normal;text-align:start" d="M177.072 104.193q-.297-.168-.542-.387-.245-.22-.49-.593l-.052-.13-.142-.128v-.194l.142-.593.103-.155v-.103h.104q.245.31.477.58.245.271.542.271l.103-.116.142-.593V99.2q-.052-.942-.09-1.922-.026-.98-.13-1.87l.04-.298-.04-.103h-.116l-.683.194q-.04-.052-.065-.207-.026-.154-.026-.296l-.116-.18v-.298h.065v-.103h.129v-.051q.503-.31 1.058-.439.554-.129 1.16-.052.13.052.233.116.103.065.232.155v.323q0 .206-.065.374-.064.155-.154.297l-.374.167-.078-.064-.129.064-.206-.064-.026.503.026 1.264-.065 2.025.039.181-.039.077v2.851q0 .58-.116 1.032-.103.452-.297.878-.129.09-.245.258-.103.18-.258.18l-.013-.064z" font-style="normal" font-variant="normal" font-weight="400" font-stretch="normal" font-size="13.21" font-family="AoyagiKouzanFontT" writing-mode="lr-tb" text-anchor="start" fill="#ff7bd9" fill-opacity="1" stroke-width=".33"/></g></g></g></svg>