<svg xmlns="http://www.w3.org/2000/svg" width="700" height="700"><g fill="#ff7bd9" stroke="#ff7bd9" stroke-width="5.62" stroke-linecap="round" stroke-linejoin="round" stroke-miterlimit="1"><path d="M156.6 596.628a48.654 103.905 30 0 1 47.945-103.46 48.654 103.905 30 0 1 70.918-32.248 48.654 103.905 30 0 1 6.041 78.91 48.654 103.905 30 0 1-66.318 92.32l7.904-81.495zM382.082 72.212a48.654 103.905 0 0 1 10.207 113.571 48.654 103.905 0 0 1-45.292 63.387 48.654 103.905 0 0 1-44.687-65.317 48.654 103.905 0 0 1 11.274-113.11l33.902 74.527zM639.385 333.49a103.905 48.654-15 0 1-107.06 39.254 103.905 48.654-15 0 1-72.949-27.343 103.905 48.654-15 0 1 51.526-60.07 103.905 48.654-15 0 1 112.174-18.386l-63.214 52.036zM83.235 266.649a48.654 103.905-75 0 1 112.344 19.535 48.654 103.905-75 0 1 49.504 60.155 48.654 103.905-75 0 1-74.657 26.258 48.654 103.905-75 0 1-106.339-40.164l80.763-13.458zM478.396 632.15a103.905 48.654 60 0 1-65.625-93.253 103.905 48.654 60 0 1 7.53-77.54 103.905 48.654 60 0 1 71.359 34.222 103.905 48.654 60 0 1 46.792 103.594l-66.624-47.592z" stroke-width="74.5460404"/></g></svg>