<svg xmlns="http://www.w3.org/2000/svg" xmlns:xlink="http://www.w3.org/1999/xlink" width="400" height="400" viewBox="0 0 105.834 105.833"><g transform="matrix(6.52901 0 0 6.52901 -941.953 -1095.013)"><path stroke-miterlimit="4" visibility="visible" overflow="visible" display="inline" baseline-shift="baseline" dominant-baseline="auto" direction="ltr" word-spacing="normal" letter-spacing="normal" text-decoration="none" font-size="medium" font-stretch="normal" font-weight="400" font-variant="normal" font-style="normal" style="line-height:normal;font-variant-ligatures:normal;font-variant-position:normal;font-variant-caps:normal;font-variant-numeric:normal;font-variant-alternates:normal;font-feature-settings:normal;text-indent:0;text-align:start;text-decoration-line:none;text-decoration-style:solid;text-decoration-color:#000;text-transform:none;text-orientation:mixed;white-space:normal;shape-padding:0;isolation:auto;mix-blend-mode:normal;solid-color:#000;solid-opacity:1" d="M154.118 174.455c-.055.176-.28.636-.347.794a3.85 3.85 0 01-.226.45l.795.398c.105-.196.208-.412.303-.637.19-.45.349-.936.439-1.371-.3.03-.787.259-.964.366zm-2.781 1.446a4.55 4.55 0 01-.332-.64 5.695 5.695 0 01-.324-1.052c-.275-1.33-.019-2.896.85-4.246l.471.709a.45.45 0 00.75 0l.47-.707a6.03 6.03 0 01.854 2.13c.111-.075.76-.282.89-.301-.051-.428-.253-1.194-.475-1.664a6.007 6.007 0 00-.874-1.349.45.45 0 00-.715.043l-.525.787-.525-.787a.45.45 0 00-.383-.2.45.45 0 00-.332.157c-1.457 1.7-1.696 3.87-1.336 5.612.09.435.216.845.374 1.219.08.187.166.365.26.532.046.084.041.077.092.155z" id="a" color="#000" font-family="sans-serif" writing-mode="lr-tb" text-anchor="start" clip-rule="nonzero" opacity="1" color-interpolation="sRGB" color-interpolation-filters="linearRGB" vector-effect="none" fill="#ff7bd9" fill-opacity="1" fill-rule="nonzero" stroke="none" stroke-width=".899" stroke-linecap="round" stroke-linejoin="round" stroke-dasharray="none" stroke-dashoffset="0" stroke-opacity="1" color-rendering="auto" image-rendering="auto" shape-rendering="auto" text-rendering="auto"/><use x="0" y="0" xlink:href="#a" id="b" transform="rotate(72 152.377 176.24)" width="100%" height="100%"/><use x="0" y="0" xlink:href="#b" id="c" transform="rotate(72 152.377 176.24)" width="100%" height="100%"/><use x="0" y="0" xlink:href="#c" id="d" transform="rotate(72 152.377 176.24)" width="100%" height="100%"/><use xlink:href="#d" transform="rotate(72 152.377 176.24)" width="100%" height="100%"/></g></svg>